<?xml version="1.0" encoding="utf-8"?>
<!-- Generator: Adobe Illustrator 22.0.1, SVG Export Plug-In . SVG Version: 6.00 Build 0)  -->
<svg version="1.1" xmlns="http://www.w3.org/2000/svg" xmlns:xlink="http://www.w3.org/1999/xlink" x="0px" y="0px"
	 viewBox="0 0 283.5 149" style="enable-background:new 0 0 283.5 149;" xml:space="preserve">
<style type="text/css">
	.st0{fill:#0090E4;}
</style>
<g id="Layer_2">
</g>
<g id="Layer_1">
	<g>
		<path class="st0" d="M73,28.2H46.7l-2.2,12.1l23.7,0c11.7,0,15.1,4.2,15,11.3c-0.1,3.6-1.6,9.7-2.3,11.7
			c-1.8,5.3-5.5,11.3-19.3,11.2l-23,0l-2.2,12.2h26.2c9.2,0,13.2-1.1,17.3-3c9.2-4.3,14.7-13.4,16.9-25.2
			C100.1,40.7,96,28.2,73,28.2"/>
		<path class="st0" d="M154.1,86.7l1.8-10.6h22.4c1.8,0,3-1.1,3.3-2.8c0.4-1.8-0.5-2.8-2.3-2.8h-10.7c-8.5,0-12.5-4.9-11-13.4
			c1.5-8.5,7.3-13.4,15.8-13.4h24.3l-1.9,10.6h-21.5c-1.8,0-3,1.1-3.3,2.8c-0.4,1.8,0.5,2.8,2.3,2.8H184c8.5,0,12.5,4.9,11,13.4
			c-1.5,8.5-7.2,13.4-15.7,13.4H154.1z"/>
		<path class="st0" d="M120,86.7c-13.9,0-20.2-7.6-17.7-21.5c2.4-13.9,11.4-21.5,25.3-21.5h24.7l-7.6,43H120z M136,54.3h-6.3
			c-7.6,0-12,3.3-13.4,10.9c-1.4,7.6,1.4,10.9,9,10.9h6.9L136,54.3z"/>
		<path class="st0" d="M228.2,86.7l4.4-25c0.8-4.9-1.2-7-6.1-7h-7l-5.6,32.1h-14.3l10.3-58.5h14.3l-2.7,15.5h10.7
			c12.5,0,17,5.5,14.8,18l-4.4,25H228.2z"/>
		<path class="st0" d="M35.4,51.3c-6.9,0-7.9,4.5-8.5,7.2c-0.9,3.5-1.1,5-1.1,5h26.9c6.9,0,7.9-4.5,8.5-7.2c0.9-3.5,1.1-5,1.1-5
			H35.4z"/>
	</g>
	<g>
		<path class="st0" d="M133.4,99.4h6.4c1.6,0,3,0.3,4.1,0.8c1.2,0.5,2.1,1.3,2.7,2.3c0.6,1,0.9,2.1,0.9,3.5c0,1.9-0.4,3.5-1.2,4.9
			c-0.8,1.4-2,2.5-3.5,3.3c-1.5,0.8-3.2,1.2-5.2,1.2h-7.4L133.4,99.4z M137.8,112.8c1.4,0,2.6-0.3,3.6-0.9c1-0.6,1.8-1.4,2.4-2.4
			s0.8-2.1,0.8-3.4c0-1.3-0.4-2.4-1.3-3.1c-0.9-0.7-2.1-1.1-3.8-1.1h-3.7l-2.2,10.9H137.8z"/>
		<path class="st0" d="M151.6,114.8c-0.9-0.4-1.6-1.1-2.1-1.9c-0.5-0.8-0.7-1.7-0.7-2.8c0-1.3,0.3-2.6,0.9-3.6s1.5-1.9,2.6-2.5
			c1.1-0.6,2.3-0.9,3.7-0.9c1.2,0,2.2,0.2,3.1,0.7c0.9,0.4,1.6,1.1,2.1,1.9c0.5,0.8,0.7,1.7,0.7,2.8c0,1.3-0.3,2.6-0.9,3.6
			c-0.6,1.1-1.5,1.9-2.6,2.5s-2.3,0.9-3.7,0.9C153.6,115.5,152.5,115.2,151.6,114.8z M157.1,112.5c0.6-0.4,1.1-0.9,1.5-1.6
			s0.5-1.5,0.5-2.4c0-1-0.3-1.7-0.8-2.2c-0.6-0.5-1.3-0.8-2.4-0.8c-0.8,0-1.5,0.2-2.1,0.6c-0.6,0.4-1.1,0.9-1.5,1.6
			s-0.5,1.5-0.5,2.4c0,1,0.3,1.7,0.8,2.2c0.6,0.5,1.3,0.8,2.4,0.8C155.7,113,156.4,112.8,157.1,112.5z"/>
		<path class="st0" d="M175.6,104.1c0.8,0.7,1.2,1.7,1.2,3c0,0.4-0.1,0.8-0.2,1.5l-1.3,6.7h-2.8l1.3-6.7c0.1-0.3,0.1-0.6,0.1-0.9
			c0-1.5-0.8-2.2-2.4-2.2c-1,0-1.9,0.3-2.6,0.9c-0.7,0.6-1.1,1.5-1.4,2.6l-1.3,6.3h-2.8l2.4-12.1h2.7l-0.3,1.3
			c1.1-1,2.5-1.5,4.2-1.5C173.8,103,174.8,103.4,175.6,104.1z"/>
		<path class="st0" d="M193.3,103.2l-2.4,12.1h-2.7l0.3-1.2c-1.1,0.9-2.4,1.4-4,1.4c-1,0-1.9-0.2-2.7-0.6c-0.8-0.4-1.4-1-1.9-1.9
			c-0.5-0.8-0.7-1.8-0.7-2.9c0-1.3,0.3-2.6,0.9-3.6c0.6-1.1,1.4-1.9,2.5-2.5c1-0.6,2.2-0.9,3.5-0.9c1.9,0,3.3,0.6,4.1,1.9l0.3-1.8
			H193.3z M187.4,112.5c0.6-0.4,1.1-0.9,1.5-1.6c0.4-0.7,0.5-1.5,0.5-2.4c0-1-0.3-1.7-0.8-2.2c-0.6-0.5-1.3-0.8-2.4-0.8
			c-0.8,0-1.5,0.2-2.1,0.6c-0.6,0.4-1.1,0.9-1.5,1.6s-0.5,1.5-0.5,2.4c0,1,0.3,1.7,0.8,2.2c0.6,0.5,1.3,0.8,2.4,0.8
			C186,113,186.8,112.8,187.4,112.5z"/>
		<path class="st0" d="M198.6,111.2c0,0.2,0,0.4,0,0.5c0,0.9,0.5,1.4,1.4,1.4c0.6,0,1.1-0.2,1.6-0.5l0.5,2.1
			c-0.8,0.5-1.7,0.7-2.9,0.7c-1,0-1.9-0.3-2.5-0.9c-0.6-0.6-1-1.4-1-2.4c0-0.3,0-0.7,0.1-1l1.2-5.7h-2l0.5-2.3h2l0.5-2.8h2.8
			l-0.6,2.8h3.3l-0.5,2.3h-3.3L198.6,111.2z"/>
		<path class="st0" d="M206.7,103.2h2.8l-2.4,12.1h-2.8L206.7,103.2z M207.5,100.7c-0.3-0.3-0.5-0.7-0.5-1.1c0-0.5,0.2-0.9,0.5-1.3
			c0.4-0.3,0.8-0.5,1.4-0.5c0.5,0,0.9,0.1,1.2,0.4c0.3,0.3,0.5,0.7,0.5,1.1c0,0.6-0.2,1-0.5,1.4c-0.4,0.3-0.8,0.5-1.4,0.5
			C208.2,101.2,207.8,101,207.5,100.7z"/>
		<path class="st0" d="M213.7,114.8c-0.9-0.4-1.6-1.1-2.1-1.9c-0.5-0.8-0.7-1.7-0.7-2.8c0-1.3,0.3-2.6,0.9-3.6
			c0.6-1.1,1.5-1.9,2.6-2.5s2.3-0.9,3.7-0.9c1.2,0,2.2,0.2,3.1,0.7c0.9,0.4,1.6,1.1,2.1,1.9c0.5,0.8,0.7,1.7,0.7,2.8
			c0,1.3-0.3,2.6-0.9,3.6c-0.6,1.1-1.5,1.9-2.6,2.5s-2.3,0.9-3.7,0.9C215.6,115.5,214.6,115.2,213.7,114.8z M219.2,112.5
			c0.6-0.4,1.1-0.9,1.5-1.6s0.5-1.5,0.5-2.4c0-1-0.3-1.7-0.8-2.2c-0.6-0.5-1.3-0.8-2.4-0.8c-0.8,0-1.5,0.2-2.1,0.6
			c-0.6,0.4-1.1,0.9-1.5,1.6s-0.5,1.5-0.5,2.4c0,1,0.3,1.7,0.8,2.2c0.6,0.5,1.3,0.8,2.4,0.8C217.8,113,218.5,112.8,219.2,112.5z"/>
		<path class="st0" d="M237.7,104.1c0.8,0.7,1.2,1.7,1.2,3c0,0.4-0.1,0.8-0.2,1.5l-1.3,6.7h-2.8l1.3-6.7c0.1-0.3,0.1-0.6,0.1-0.9
			c0-1.5-0.8-2.2-2.4-2.2c-1,0-1.9,0.3-2.6,0.9c-0.7,0.6-1.1,1.5-1.4,2.6l-1.3,6.3h-2.8l2.4-12.1h2.7l-0.3,1.3
			c1.1-1,2.5-1.5,4.2-1.5C235.9,103,236.9,103.4,237.7,104.1z"/>
	</g>
</g>
</svg>
