<svg id="Layer_1" data-name="Layer 1" xmlns="http://www.w3.org/2000/svg" viewBox="0 0 515.95 153.44"><defs><style>.cls-1{fill:#979797;}.cls-2{fill:#008de4;}</style></defs><title>dash_masterNode_icon</title><polygon class="cls-1" points="252.86 148.56 250.88 148.28 251.01 147.29 271.15 4.3 273.13 4.58 273 5.57 252.86 148.56"/><path class="cls-2" d="M55.43,49.09H31.48l-2,11.09,21.61,0c10.64,0,13.79,3.87,13.7,10.28a46.75,46.75,0,0,1-2.08,10.64c-1.65,4.8-5,10.27-17.65,10.26h-21l-2,11.1H46c8.43,0,12-1,15.81-2.73,8.42-3.89,13.42-12.2,15.43-23C80.21,60.57,76.49,49.09,55.43,49.09Z"/><path class="cls-2" d="M132.7,75.5c-1.36,7.71,2.33,12.21,10.05,12.21h9.78a1.93,1.93,0,0,1,2.09,2.58,2.83,2.83,0,0,1-3,2.57H131.19l-1.69,9.65h23.1c7.72,0,12.94-4.51,14.31-12.22s-2.33-12.22-10-12.22h-9.78A1.93,1.93,0,0,1,145,75.5a2.84,2.84,0,0,1,3-2.58h19.59l1.77-9.64H147.09C139.38,63.28,134.07,67.78,132.7,75.5Z"/><path class="cls-2" d="M82.18,82.89c-2.25,12.7,3.46,19.61,16.16,19.61h22.51l6.92-39.23H105.26C92.56,63.27,84.36,70.19,82.18,82.89Zm30.8-10-3.46,19.94h-6.34c-6.91,0-9.48-3.06-8.2-10s5.29-10,12.21-10Z"/><path class="cls-2" d="M200.75,63.27H191l2.51-14.18h-13l-9.42,53.41h13l5.14-29.26h6.4c4.51,0,6.33,1.93,5.61,6.43l-4,22.83h13l4-22.83C216.26,68.26,212.16,63.27,200.75,63.27Z"/><path class="cls-2" d="M44.64,74.76c.78-3.23,1-4.54,1-4.54H21.15c-6.27,0-7.17,4.08-7.77,6.55-.77,3.24-1,4.55-1,4.55H36.87C43.15,81.32,44.05,77.23,44.64,74.76Z"/><path id="MasterNode" class="cls-2" d="M330.46,110.25l-4.26,21.28h-3.74l2.77-14-9.09,11.52h-1.76l-4.87-11.8-2.82,14.23h-3.77l4.25-21.28h3.23L316,124.42l11-14.17Zm20,5-3.22,16.23H343.6l.34-1.67a8.32,8.32,0,0,1-8.93,1,6.32,6.32,0,0,1-2.57-2.48,7.52,7.52,0,0,1-.94-3.81,9.91,9.91,0,0,1,1.2-4.88,8.72,8.72,0,0,1,3.29-3.39,9.05,9.05,0,0,1,4.66-1.22c2.6,0,4.44.86,5.54,2.59l.45-2.4Zm-10.82,13.19a5.35,5.35,0,0,0,4.86-2.93,6.65,6.65,0,0,0,.73-3.15,4,4,0,0,0-1.12-3,4.43,4.43,0,0,0-3.16-1.07,5.35,5.35,0,0,0-2.88.77,5.54,5.54,0,0,0-2,2.16,6.71,6.71,0,0,0-.73,3.15,4,4,0,0,0,1.13,3A4.37,4.37,0,0,0,339.62,128.49Zm17.88,3.25a15.28,15.28,0,0,1-3.93-.5,8.63,8.63,0,0,1-2.91-1.26l1.58-2.92a7.91,7.91,0,0,0,2.53,1.16,11.64,11.64,0,0,0,3.13.42,6,6,0,0,0,2.75-.5,1.57,1.57,0,0,0,.93-1.44,1.12,1.12,0,0,0-.78-1.07,15.15,15.15,0,0,0-2.45-.7,22,22,0,0,1-2.84-.71A4.61,4.61,0,0,1,353.6,123a3.35,3.35,0,0,1-.81-2.38,4.64,4.64,0,0,1,2.11-4,9.58,9.58,0,0,1,5.61-1.48,14.11,14.11,0,0,1,3.26.38,8.89,8.89,0,0,1,2.58,1l-1.4,2.92a7.24,7.24,0,0,0-2.26-.94,10.45,10.45,0,0,0-2.54-.31,5.48,5.48,0,0,0-2.72.55,1.63,1.63,0,0,0-.93,1.43,1.18,1.18,0,0,0,.81,1.14,14.21,14.21,0,0,0,2.5.71,21.05,21.05,0,0,1,2.8.72A4.56,4.56,0,0,1,364.5,124a3.3,3.3,0,0,1,.79,2.31,4.58,4.58,0,0,1-2.13,4A10,10,0,0,1,357.5,131.74Zm15.24-5.65a6.28,6.28,0,0,0-.06.7c0,1.21.64,1.82,1.92,1.82a3.69,3.69,0,0,0,2.13-.64l.66,2.8a7.23,7.23,0,0,1-3.92,1,4.82,4.82,0,0,1-3.37-1.15,4.11,4.11,0,0,1-1.28-3.2,6.52,6.52,0,0,1,.12-1.27l1.55-7.66h-2.64l.61-3h2.64l.73-3.71h3.8l-.76,3.71h4.38l-.61,3h-4.38Zm23.75-3.86a11,11,0,0,1-.24,2.31H383.36q.09,4,4.68,4a7.7,7.7,0,0,0,2.62-.44,6.11,6.11,0,0,0,2.06-1.23l1.59,2.64a8.25,8.25,0,0,1-3,1.69,12,12,0,0,1-3.66.56,9.53,9.53,0,0,1-4.24-.88,6.35,6.35,0,0,1-2.78-2.51,7.13,7.13,0,0,1-1-3.75,9.91,9.91,0,0,1,1.2-4.88,8.6,8.6,0,0,1,3.35-3.39,9.59,9.59,0,0,1,4.82-1.22,7.69,7.69,0,0,1,5.44,1.9A6.79,6.79,0,0,1,396.49,122.23Zm-7.66-4.08A5.13,5.13,0,0,0,383.7,122H393a3.54,3.54,0,0,0-1.11-2.84A4.42,4.42,0,0,0,388.83,118.15Zm15.67-.76a5.73,5.73,0,0,1,2.6-1.76,11.61,11.61,0,0,1,3.66-.52l-.7,3.62a5.5,5.5,0,0,0-.94-.09c-3.1,0-5,1.63-5.62,4.89l-1.62,8h-3.8l3.23-16.23h3.61Zm29.31-7.14-4.25,21.28H426.3l-8.72-14.9-3,14.9h-3.92l4.26-21.28h3.25l8.75,14.9,2.95-14.9Zm8.92,21.49a9.22,9.22,0,0,1-4.15-.89,6.63,6.63,0,0,1-2.75-2.51,7.09,7.09,0,0,1-1-3.74,9.66,9.66,0,0,1,1.23-4.87,8.87,8.87,0,0,1,3.43-3.39,10,10,0,0,1,5-1.23,9.48,9.48,0,0,1,4.17.88,6.45,6.45,0,0,1,2.76,2.5,7.07,7.07,0,0,1,1,3.74,9.56,9.56,0,0,1-1.25,4.86,9.11,9.11,0,0,1-3.45,3.41A9.94,9.94,0,0,1,442.73,131.74Zm.24-3.25a5.38,5.38,0,0,0,2.88-.78,5.44,5.44,0,0,0,2-2.15,6.77,6.77,0,0,0,.73-3.15,4,4,0,0,0-1.13-3,4.41,4.41,0,0,0-3.16-1.07,5.34,5.34,0,0,0-2.87.77,5.47,5.47,0,0,0-2,2.16,6.6,6.6,0,0,0-.73,3.15,4,4,0,0,0,1.12,3A4.39,4.39,0,0,0,443,128.49ZM474.45,109,470,131.53h-3.62l.33-1.67a7.82,7.82,0,0,1-5.26,1.88,7.71,7.71,0,0,1-3.63-.85,6.32,6.32,0,0,1-2.57-2.48,7.42,7.42,0,0,1-.94-3.81,10,10,0,0,1,1.19-4.9,8.66,8.66,0,0,1,3.26-3.37,9.12,9.12,0,0,1,4.67-1.22,8.11,8.11,0,0,1,3.33.64,5,5,0,0,1,2.2,1.89l1.74-8.67Zm-12.07,19.52a5.41,5.41,0,0,0,2.86-.78,5.3,5.3,0,0,0,2-2.15,6.89,6.89,0,0,0,.71-3.15,4,4,0,0,0-1.12-3,4.44,4.44,0,0,0-3.17-1.07,5.3,5.3,0,0,0-4.84,2.93,6.71,6.71,0,0,0-.72,3.15,4,4,0,0,0,1.13,3A4.37,4.37,0,0,0,462.38,128.49Zm29.34-6.26a11,11,0,0,1-.24,2.31H478.59q.09,4,4.68,4a7.75,7.75,0,0,0,2.62-.44,6.11,6.11,0,0,0,2.06-1.23l1.58,2.64a8.2,8.2,0,0,1-3,1.69,12.07,12.07,0,0,1-3.66.56,9.5,9.5,0,0,1-4.24-.88,6.43,6.43,0,0,1-2.79-2.51,7.22,7.22,0,0,1-1-3.75,9.91,9.91,0,0,1,1.2-4.88,8.6,8.6,0,0,1,3.35-3.39,9.55,9.55,0,0,1,4.81-1.22,7.71,7.71,0,0,1,5.45,1.9A6.82,6.82,0,0,1,491.72,122.23Zm-7.66-4.08a5.24,5.24,0,0,0-3.27,1,5.33,5.33,0,0,0-1.87,2.82h9.31a3.54,3.54,0,0,0-1.11-2.84A4.42,4.42,0,0,0,484.06,118.15Z"/><path class="cls-2" d="M451.31,94.19H308.05l.49-2.72c0-.08,1.53-8.29,5.94-27.88l.13-.59c3.48-15.45,9.29-41.3,46.61-41.3H504.49l-.5,2.72c0,.08-1.52,8.28-5.94,27.88l-.13.59C494.45,68.34,488.63,94.19,451.31,94.19ZM313.62,89.57H451.31c33.62,0,38.73-22.68,42.1-37.69l.14-.6c3-13.17,4.61-21.15,5.37-25H361.22C327.6,26.32,322.5,49,319.12,64l-.13.6C316,77.77,314.37,85.76,313.62,89.57Z"/><path class="cls-2" d="M406.27,82.69A24.74,24.74,0,1,1,431,57.94,24.79,24.79,0,0,1,406.27,82.69Zm0-44.86a20.12,20.12,0,1,0,20.15,20.11A20.15,20.15,0,0,0,406.27,37.83Z"/></svg>