<svg id="Layer_1" data-name="Layer 1" xmlns="http://www.w3.org/2000/svg" viewBox="0 0 185.11 89.42"><defs><style>.cls-1{fill:#008de4;}</style></defs><title>dash_masterNode_noText</title><path class="cls-1" d="M132.09,76.52H6.35l.44-2.39c0-.07,1.33-7.27,5.21-24.46l.11-.53C15.16,35.59,20.27,12.9,53,12.9H178.76l-.44,2.39c0,.07-1.33,7.27-5.21,24.46l-.11.52C170,53.83,164.84,76.52,132.09,76.52Zm-120.85-4H132.09c29.51,0,34-19.91,36.95-33.09l.12-.52c2.6-11.55,4-18.56,4.71-21.91H53C23.51,17,19,36.86,16.07,50l-.12.53C13.35,62.11,11.91,69.12,11.24,72.47Z"/><path class="cls-1" d="M92.56,66.42A21.71,21.71,0,1,1,114.3,44.71,21.76,21.76,0,0,1,92.56,66.42Zm0-39.37a17.66,17.66,0,1,0,17.68,17.66A17.69,17.69,0,0,0,92.56,27.05Z"/></svg>