<?xml version="1.0" encoding="utf-8"?>
<!-- Generator: Adobe Illustrator 19.1.0, SVG Export Plug-In . SVG Version: 6.00 Build 0)  -->
<svg version="1.1" id="Layer_1" xmlns="http://www.w3.org/2000/svg" xmlns:xlink="http://www.w3.org/1999/xlink" x="0px" y="0px"
	 viewBox="0 0 85 85" style="enable-background:new 0 0 85 85;" xml:space="preserve">
<style type="text/css">
	.st0{fill:#010101;}
</style>
<path class="st0" d="M71.8,12.7H15.6c-6.1,0-11.2,5.6-11.2,12.4v34.2c0,6.8,5,12.4,11.2,12.4h56.2C78,71.6,83,66,83,59.2V25.1
	C82.9,18.3,77.9,12.7,71.8,12.7z M15.6,17.1h56.2c3.7,0,6.8,3.6,6.8,8v2.1H8.8v-2.1C8.8,20.7,11.9,17.1,15.6,17.1z M71.8,67.2H15.6
	c-3.7,0-6.8-3.6-6.8-8V31.5h69.7v27.7C78.6,63.6,75.5,67.2,71.8,67.2z"/>
<circle class="st0" cx="51.9" cy="22" r="2.7"/>
<circle class="st0" cx="60.3" cy="22" r="2.7"/>
<circle class="st0" cx="69.3" cy="22" r="2.7"/>
<path class="st0" d="M30.9,53.6h18.5l2.9-8.5H33.8l1.4-4.2h20.5c0.6,0,1.1,0.1,1.6,0.4c0.5,0.2,0.8,0.6,1.1,1
	c0.3,0.4,0.4,0.9,0.5,1.4c0.1,0.5,0,1.1-0.2,1.7l-2.8,8C55.7,54,55.4,54.5,55,55c-0.4,0.5-0.9,1-1.5,1.4c-0.5,0.4-1.1,0.7-1.8,1
	c-0.6,0.2-1.2,0.4-1.8,0.4H29.4L30.9,53.6"/>
<polygon class="st0" points="27.1,51.5 39.9,51.5 41.3,47.2 28.5,47.2 "/>
</svg>
