<?xml version="1.0" encoding="utf-8"?>
<!-- Generator: Adobe Illustrator 19.1.0, SVG Export Plug-In . SVG Version: 6.00 Build 0)  -->
<svg version="1.1" id="Layer_1" xmlns="http://www.w3.org/2000/svg" xmlns:xlink="http://www.w3.org/1999/xlink" x="0px" y="0px"
	 viewBox="0 0 85 85" style="enable-background:new 0 0 85 85;" xml:space="preserve">
<style type="text/css">
	.st0{fill:#1D75BC;}
</style>
<path class="st0" d="M70.6,49.2c0,0.3,0,0.6-0.1,0.9c0,0.1,0,0.1,0,0.2c-0.4,0-0.7-0.1-1.1-0.1c-6.8,0-12.2,5.5-12.2,12.2
	s5.5,12.2,12.2,12.2s12.2-5.5,12.2-12.2c0-4.3-2.3-8.2-5.8-10.4c0-0.3,0.1-0.6,0.1-0.9c0-0.2,0-0.4,0.1-0.5c0-0.4,0.1-0.7,0.1-1.1
	c0-0.2,0-0.4,0-0.5c0-0.5,0-1.1,0-1.5c0-10.1-4.5-19.4-12.4-25.7c-1.2-1-3-0.7-4,0.5c-1,1.2-0.7,3,0.5,4c6.6,5.2,10.4,13,10.4,21.2
	c0,0.5,0,0.9,0,1.3C70.6,48.9,70.6,49.1,70.6,49.2z M76,62.4c0,3.7-3,6.7-6.7,6.7s-6.7-3-6.7-6.7s3-6.7,6.7-6.7
	C73.1,55.8,76,58.8,76,62.4z M43.1,5.1c-2.3,0-4.4,0.6-6.3,1.8c-3.7,2.3-5.9,6.2-5.9,10.3c-1.4,0.6-2.8,1.3-4.1,2.1
	c-8.6,5.2-14.3,14-15.6,24c-0.2,1.5,0.9,3,2.4,3.2c0.1,0,0.3,0,0.4,0c1.4,0,2.6-1,2.8-2.4c1.1-8.3,5.8-15.5,12.9-19.8
	c0.8-0.5,1.6-0.9,2.4-1.4c0.2,0.4,0.4,0.6,0.5,0.9c2.3,3.7,6.1,5.9,10.4,5.9c2.3,0,4.4-0.6,6.3-1.8c2.8-1.7,4.8-4.3,5.6-7.6
	c0.8-3.2,0.3-6.5-1.4-9.3C51.4,7.3,47.4,5.1,43.1,5.1z M49.6,18.8c-0.5,1.7-1.5,3.2-3,4.1c-1,0.6-2.3,1-3.4,1
	c-2.3,0-4.5-1.2-5.7-3.2c-1.9-3.2-0.9-7.2,2.3-9.1c1-0.6,2.3-1,3.4-1c2.3,0,4.5,1.2,5.7,3.2C49.7,15.4,50,17.1,49.6,18.8z
	 M11.7,73.2c1.8,1,3.9,1.5,5.9,1.5s4.1-0.5,5.9-1.5c0.3,0.2,0.5,0.4,0.7,0.5c0.2,0.1,0.3,0.3,0.5,0.4c0.3,0.2,0.6,0.4,0.9,0.6
	c0.2,0.1,0.3,0.2,0.5,0.3c0.5,0.3,0.9,0.5,1.4,0.8l0,0l0,0c5,2.8,10.4,4.1,15.9,4.1c4.2,0,8.5-0.8,12.5-2.5c1.4-0.6,2.1-2.3,1.5-3.7
	c-0.6-1.4-2.3-2.1-3.7-1.5c-7.7,3.2-16.3,2.7-23.6-1.4l0,0c-0.4-0.2-0.7-0.5-1.2-0.6c-0.1-0.1-0.3-0.2-0.4-0.3
	c-0.3-0.2-0.5-0.4-0.7-0.5c-0.1,0-0.1-0.1-0.1-0.1c0.2-0.3,0.4-0.6,0.5-0.9c3.3-5.9,1.2-13.3-4.7-16.7c-1.8-1-3.9-1.5-5.9-1.5
	c-4.4,0-8.6,2.4-10.6,6.2c-1.6,2.9-2,6.1-1.1,9.3C6.8,69,8.8,71.6,11.7,73.2z M11.8,59.3c1.2-2.1,3.4-3.4,5.8-3.4
	c1.1,0,2.3,0.3,3.2,0.8c3.2,1.8,4.3,5.9,2.5,9c-1.2,2.1-3.4,3.4-5.8,3.4c-1.1,0-2.3-0.3-3.2-0.8c-1.5-0.9-2.7-2.3-3.2-4
	C10.8,62.6,10.9,60.9,11.8,59.3z"/>
</svg>
