<?xml version="1.0" encoding="utf-8"?>
<!-- Generator: Adobe Illustrator 19.1.0, SVG Export Plug-In . SVG Version: 6.00 Build 0)  -->
<svg version="1.1" id="Layer_1" xmlns="http://www.w3.org/2000/svg" xmlns:xlink="http://www.w3.org/1999/xlink" x="0px" y="0px"
	 viewBox="0 0 85 85" style="enable-background:new 0 0 85 85;" xml:space="preserve">
<style type="text/css">
	.st0{fill:#EF4136;}
	.st1{fill:#EF4237;}
</style>
<path class="st0" d="M18.9,58.8c-7.5,0-13.5-6.1-13.5-13.5v-2.7h5.4v2.7c0,4.5,3.6,8.1,8.1,8.1h13.5V42.5l13.5,13.5L32.4,69.6V58.8
	H18.9z"/>
<path class="st0" d="M66.9,28.8c7.5,0,13.5,6.1,13.5,13.5V45H75v-2.7c0-4.5-3.6-8.1-8.1-8.1H53.4V45L39.8,31.5l13.5-13.5v10.9H66.9z
	"/>
<g>
	<path class="st1" d="M42.9,10.4C60.6,10.4,75,24.8,75,42.5S60.6,74.6,42.9,74.6S10.8,60.2,10.8,42.5S25.2,10.4,42.9,10.4 M42.9,5
		C22.2,5,5.4,21.8,5.4,42.5s16.8,37.5,37.5,37.5s37.5-16.8,37.5-37.5S63.6,5,42.9,5L42.9,5z"/>
</g>
</svg>
