<?xml version="1.0" encoding="utf-8"?>
<!-- Generator: Adobe Illustrator 19.1.0, SVG Export Plug-In . SVG Version: 6.00 Build 0)  -->
<svg version="1.1" id="Layer_1" xmlns="http://www.w3.org/2000/svg" xmlns:xlink="http://www.w3.org/1999/xlink" x="0px" y="0px"
	 viewBox="0 0 85 85" style="enable-background:new 0 0 85 85;" xml:space="preserve">
<style type="text/css">
	.st0{fill:#009444;}
</style>
<path class="st0" d="M29.8,37.2h0.9v-3.8c0-6.2,5.1-11.3,11.3-11.3s11.3,5.1,11.3,11.3v3.8h0.9c1.6,0,2.8,1.3,2.8,2.8v16.9
	c0,1.6-1.3,2.8-2.8,2.8H29.8c-1.6,0-2.8-1.3-2.8-2.8V40C27,38.4,28.2,37.2,29.8,37.2z M42,52.2c2.1,0,3.8-1.7,3.8-3.8
	s-1.7-3.8-3.8-3.8s-3.8,1.7-3.8,3.8S39.9,52.2,42,52.2z M38.2,37.2h7.5v-3.8c0-2.1-1.7-3.8-3.8-3.8s-3.8,1.7-3.8,3.8V37.2z"/>
<g>
	<path class="st0" d="M63.4,13.3c4.4,0,7.9,3.6,7.9,7.9V63c0,4.4-3.6,7.9-7.9,7.9H21.7c-4.4,0-7.9-3.6-7.9-7.9V21.3
		c0-4.4,3.6-7.9,7.9-7.9H63.4 M63.4,8.2H21.7c-7.2,0-13,5.9-13,13V63c0,7.2,5.9,13,13,13h41.7c7.2,0,13-5.9,13-13V21.3
		C76.4,14.1,70.5,8.2,63.4,8.2L63.4,8.2z"/>
</g>
</svg>
