<svg id="Layer_1" data-name="Layer 1" xmlns="http://www.w3.org/2000/svg" viewBox="0 0 504.69 153.44"><defs><style>.cls-1{fill:#979797;}.cls-2{fill:#008de4;}</style></defs><title>dash_instantSend_icon</title><polygon class="cls-1" points="252.86 148.56 250.88 148.28 251.01 147.29 271.15 4.3 273.13 4.58 273 5.57 252.86 148.56"/><path class="cls-2" d="M55.43,49.09H31.48l-2,11.09,21.61,0c10.64,0,13.79,3.87,13.7,10.28a46.75,46.75,0,0,1-2.08,10.64c-1.65,4.8-5,10.27-17.65,10.26h-21l-2,11.1H46c8.43,0,12-1,15.81-2.73,8.42-3.89,13.42-12.2,15.43-23C80.21,60.57,76.49,49.09,55.43,49.09Z"/><path class="cls-2" d="M132.7,75.5c-1.36,7.71,2.33,12.21,10.05,12.21h9.78a1.93,1.93,0,0,1,2.09,2.58,2.83,2.83,0,0,1-3,2.57H131.19l-1.69,9.65h23.1c7.72,0,12.94-4.51,14.31-12.22s-2.33-12.22-10-12.22h-9.78A1.93,1.93,0,0,1,145,75.5a2.84,2.84,0,0,1,3-2.58h19.59l1.77-9.64H147.09C139.38,63.28,134.07,67.78,132.7,75.5Z"/><path class="cls-2" d="M82.18,82.89c-2.25,12.7,3.46,19.61,16.16,19.61h22.51l6.92-39.23H105.26C92.56,63.27,84.36,70.19,82.18,82.89Zm30.8-10-3.46,19.94h-6.34c-6.91,0-9.48-3.06-8.2-10s5.29-10,12.21-10Z"/><path class="cls-2" d="M200.75,63.27H191l2.51-14.18h-13l-9.42,53.41h13l5.14-29.26h6.4c4.51,0,6.33,1.93,5.61,6.43l-4,22.83h13l4-22.83C216.26,68.26,212.16,63.27,200.75,63.27Z"/><path class="cls-2" d="M44.64,74.76c.78-3.23,1-4.54,1-4.54H21.15c-6.27,0-7.17,4.08-7.77,6.55-.77,3.24-1,4.55-1,4.55H36.87C43.15,81.32,44.05,77.23,44.64,74.76Z"/><g id="Page-1"><g id="icons"><g id="Group-7"><path class="cls-2" d="M447.8,44c.17-.74.33-1.46.49-2.13l.09-.4c3-13.43,4-18.88,4.06-19.1l.5-2.73H354.05c-26.12,0-30.34,18.75-32.6,28.83l-.1.4c-3,13.42-4,18.88-4.06,19.1l-.5,2.73h28.45c-.18.74-.34,1.46-.49,2.13l-.09.4c-3,13.42-4,18.88-4.07,19.1l-.5,2.73H439c26.12,0,30.33-18.76,32.6-28.83l.09-.4c3-13.43,4-18.88,4.07-19.11l.5-2.72ZM322.37,66c.57-2.87,1.67-8.09,3.49-16.19l.09-.41c2.4-10.64,5.68-25.22,28.1-25.22h93.31c-.57,2.86-1.66,8.08-3.49,16.19l-.09.41c-.23,1-.47,2.07-.73,3.14h-65.7c-21,0-27.82,12.1-30.88,22.08ZM441.75,48.57C438.85,57.4,432.93,66,415.68,66h-64.4c2.91-8.83,8.82-17.46,26.07-17.46Zm25.42,16.19-.09.41c-2.39,10.64-5.67,25.22-28.09,25.22H345.67c.58-2.87,1.67-8.09,3.5-16.19l.09-.41c.23-1,.46-2.07.72-3.14h65.7c21,0,27.83-12.1,30.89-22.08h24.1C470.09,51.43,469,56.66,467.17,64.76Z"/><path id="InstantSend" class="cls-2" d="M306.31,110.21h3.95L306,131.49h-3.95Zm16.91,4.86a6.26,6.26,0,0,1,4.33,1.43,5.12,5.12,0,0,1,1.6,4,11.18,11.18,0,0,1-.22,1.95l-1.79,9h-3.8l1.76-8.91a5.77,5.77,0,0,0,.13-1.25c0-2-1.09-3-3.26-3a5.13,5.13,0,0,0-3.46,1.18,6.12,6.12,0,0,0-1.86,3.51l-1.7,8.42h-3.8l3.22-16.24H318l-.36,1.8A8,8,0,0,1,323.22,115.07Zm14,16.63a15.22,15.22,0,0,1-3.93-.5,9,9,0,0,1-2.91-1.26L332,127a7.91,7.91,0,0,0,2.53,1.15,11.26,11.26,0,0,0,3.13.43,6,6,0,0,0,2.75-.5,1.58,1.58,0,0,0,.93-1.45,1.11,1.11,0,0,0-.78-1.06,14.46,14.46,0,0,0-2.45-.7,22,22,0,0,1-2.84-.71,4.61,4.61,0,0,1-1.91-1.25,3.36,3.36,0,0,1-.81-2.39,4.63,4.63,0,0,1,2.11-4,9.58,9.58,0,0,1,5.61-1.48,14.11,14.11,0,0,1,3.26.38,8.36,8.36,0,0,1,2.58,1l-1.4,2.92a7.24,7.24,0,0,0-2.26-.94,10.45,10.45,0,0,0-2.54-.31,5.37,5.37,0,0,0-2.72.55,1.62,1.62,0,0,0-.93,1.43,1.19,1.19,0,0,0,.81,1.14,14.21,14.21,0,0,0,2.5.71,21.05,21.05,0,0,1,2.8.72,4.56,4.56,0,0,1,1.89,1.23,3.3,3.3,0,0,1,.79,2.31,4.58,4.58,0,0,1-2.13,4A10,10,0,0,1,337.27,131.7Zm15.24-5.65a6.34,6.34,0,0,0-.06.69q0,1.83,1.92,1.83a3.69,3.69,0,0,0,2.13-.64l.66,2.8a7.23,7.23,0,0,1-3.92,1,4.78,4.78,0,0,1-3.37-1.16,4.08,4.08,0,0,1-1.28-3.19,6.52,6.52,0,0,1,.12-1.27l1.55-7.66h-2.64l.61-3h2.64l.73-3.71h3.8l-.76,3.71H359l-.61,3H354Zm25.85-10.8-3.22,16.24h-3.62l.34-1.67a8.32,8.32,0,0,1-8.93,1,6.32,6.32,0,0,1-2.57-2.48,7.52,7.52,0,0,1-.94-3.81,9.91,9.91,0,0,1,1.2-4.88,8.72,8.72,0,0,1,3.29-3.39,9.05,9.05,0,0,1,4.66-1.22c2.6,0,4.44.86,5.54,2.59l.45-2.41Zm-10.82,13.2a5.34,5.34,0,0,0,4.86-2.94,6.58,6.58,0,0,0,.73-3.14,4,4,0,0,0-1.12-3,4.39,4.39,0,0,0-3.16-1.08,5.36,5.36,0,0,0-2.88.78,5.54,5.54,0,0,0-2,2.16,6.7,6.7,0,0,0-.73,3.14,4,4,0,0,0,1.13,3A4.37,4.37,0,0,0,367.54,128.45ZM392,115.07a6.26,6.26,0,0,1,4.33,1.43,5.12,5.12,0,0,1,1.6,4,11.18,11.18,0,0,1-.22,1.95l-1.79,9h-3.8l1.76-8.91a5.77,5.77,0,0,0,.13-1.25c0-2-1.09-3-3.26-3a5.13,5.13,0,0,0-3.46,1.18,6.12,6.12,0,0,0-1.86,3.51l-1.7,8.42h-3.8l3.22-16.24h3.62l-.36,1.8A8,8,0,0,1,392,115.07Zm13.87,11a6.34,6.34,0,0,0-.06.69q0,1.83,1.92,1.83a3.63,3.63,0,0,0,2.12-.64l.67,2.8a7.23,7.23,0,0,1-3.92,1,4.78,4.78,0,0,1-3.37-1.16,4.08,4.08,0,0,1-1.28-3.19,6.52,6.52,0,0,1,.12-1.27l1.55-7.66h-2.64l.6-3h2.65l.73-3.71h3.8l-.76,3.71h4.38l-.61,3h-4.38Zm14.63,5.74a15.66,15.66,0,0,1-4.71-.7,9.88,9.88,0,0,1-3.53-1.79l1.68-3.1a10.29,10.29,0,0,0,3.17,1.68,11.55,11.55,0,0,0,3.76.63,7.33,7.33,0,0,0,3.72-.81,2.45,2.45,0,0,0,1.38-2.2,1.71,1.71,0,0,0-.56-1.32,4.17,4.17,0,0,0-1.4-.87c-.55-.22-1.33-.48-2.32-.76a31.06,31.06,0,0,1-3.35-1.17,5.77,5.77,0,0,1-2.18-1.69,4.48,4.48,0,0,1-.92-2.92,5.83,5.83,0,0,1,1.17-3.61,7.5,7.5,0,0,1,3.27-2.41,13,13,0,0,1,4.84-.85,16.13,16.13,0,0,1,3.92.47,11.06,11.06,0,0,1,3.19,1.33L430,114.83a9.51,9.51,0,0,0-2.68-1.22,11.32,11.32,0,0,0-3.1-.42,7.08,7.08,0,0,0-3.75.86,2.63,2.63,0,0,0-1.38,2.3,1.83,1.83,0,0,0,.57,1.37,4.29,4.29,0,0,0,1.4.86c.55.22,1.35.48,2.4.81a29.39,29.39,0,0,1,3.29,1.12,5.85,5.85,0,0,1,2.17,1.61,4.16,4.16,0,0,1,.9,2.77,5.9,5.9,0,0,1-1.17,3.65,7.55,7.55,0,0,1-3.32,2.4A13.16,13.16,0,0,1,420.46,131.79ZM449,122.18a10.44,10.44,0,0,1-.25,2.32H435.88q.11,4,4.69,4a7.69,7.69,0,0,0,2.61-.44,6.25,6.25,0,0,0,2.07-1.23l1.58,2.64a8.16,8.16,0,0,1-3,1.69,12,12,0,0,1-3.66.56,9.56,9.56,0,0,1-4.24-.88,6.46,6.46,0,0,1-2.78-2.51,7.15,7.15,0,0,1-1-3.75,9.91,9.91,0,0,1,1.2-4.88,8.58,8.58,0,0,1,3.34-3.39,9.62,9.62,0,0,1,4.82-1.22A7.64,7.64,0,0,1,447,117,6.79,6.79,0,0,1,449,122.18Zm-7.66-4.07a5.1,5.1,0,0,0-5.14,3.86h9.3a3.54,3.54,0,0,0-1.11-2.84A4.41,4.41,0,0,0,441.36,118.11Zm21.32-3A6.28,6.28,0,0,1,467,116.5a5.15,5.15,0,0,1,1.59,4,12,12,0,0,1-.21,1.95l-1.79,9h-3.8l1.76-8.91a6.46,6.46,0,0,0,.12-1.25c0-2-1.08-3-3.25-3a5.17,5.17,0,0,0-3.47,1.18,6.06,6.06,0,0,0-1.85,3.51l-1.7,8.42h-3.8l3.22-16.24h3.62l-.37,1.8A8,8,0,0,1,462.68,115.07Zm29-6.14-4.5,22.56H483.6l.33-1.67a8.25,8.25,0,0,1-8.89,1,6.32,6.32,0,0,1-2.57-2.48,7.52,7.52,0,0,1-.94-3.81,10,10,0,0,1,1.19-4.9,8.62,8.62,0,0,1,3.27-3.37,9.05,9.05,0,0,1,4.66-1.22,8,8,0,0,1,3.33.64,5,5,0,0,1,2.2,1.88l1.74-8.66Zm-12.07,19.52a5.41,5.41,0,0,0,2.86-.78,5.27,5.27,0,0,0,2-2.16,6.82,6.82,0,0,0,.71-3.14,4,4,0,0,0-1.12-3,4.39,4.39,0,0,0-3.16-1.08,5.34,5.34,0,0,0-4.85,2.94,6.7,6.7,0,0,0-.72,3.14,4,4,0,0,0,1.13,3A4.37,4.37,0,0,0,479.65,128.45Z"/></g></g></g></svg>