<svg id="Layer_1" data-name="Layer 1" xmlns="http://www.w3.org/2000/svg" viewBox="0 0 154.44 89.42"><defs><style>.cls-1{fill:#008de4;}</style></defs><title>dash_instantSend_noText</title><path class="cls-1" d="M119.72,33.65c.14-.62.28-1.21.4-1.76l.08-.34c2.5-11.12,3.33-15.64,3.37-15.83l.41-2.26H42C20.38,13.46,16.89,29,15,37.35l-.08.34c-2.5,11.12-3.33,15.64-3.37,15.83l-.41,2.25H34.73c-.15.62-.28,1.21-.41,1.77l-.07.33C31.74,69,30.91,73.52,30.88,73.7L30.46,76h82c21.64,0,25.14-15.54,27-23.89l.08-.33c2.51-11.13,3.34-15.65,3.37-15.83l.41-2.26ZM15.77,52c.48-2.38,1.39-6.71,2.9-13.42l.07-.34c2-8.82,4.71-20.9,23.29-20.9h77.33c-.48,2.37-1.38,6.7-2.9,13.42l-.07.34c-.19.84-.39,1.71-.61,2.6H61.34c-17.39,0-23.06,10-25.59,18.3Zm98.94-14.47C112.3,44.79,107.4,52,93.1,52H39.73C42.14,44.63,47,37.48,61.34,37.48Zm21.06,13.41-.07.34c-2,8.82-4.7,20.9-23.28,20.9H35.09c.47-2.37,1.38-6.7,2.89-13.41l.08-.34c.19-.84.38-1.72.6-2.61H93.1c17.39,0,23.06-10,25.6-18.29h20C138.19,39.85,137.29,44.18,135.77,50.89Z"/></svg>