<svg id="Layer_1" data-name="Layer 1" xmlns="http://www.w3.org/2000/svg" viewBox="0 0 154.44 89.42"><defs><style>.cls-1{fill:#008de4;}</style></defs><title>dash_wallet_noText</title><path class="cls-1" d="M143.78,29l-2-1.7c-.11-.09-2.7-2.32-9.36-7.55l-.2-.16c-5.14-4-14.69-11.55-28.77-.55L77,39.73,51,19.14C37,8,27.42,15.49,22.26,19.5l-.21.16c-6.69,5.19-9.3,7.4-9.41,7.49l-2,1.68L63,70.29c5.52,4.37,10.36,5.87,14.51,5.82,6.37-.07,11.13-3.75,14.26-6.18l.2-.16c6.69-5.19,9.3-7.4,9.41-7.49l2-1.67Zm-37.67-6.6c11.44-8.94,18.41-3.46,23.5.54l.2.16c3.4,2.67,5.74,4.56,7.21,5.77l-37.11,29L80.45,42.46ZM88.56,66.75c-11.45,8.94-18.42,3.46-23.5-.54l-.21-.16c-3.39-2.67-5.73-4.56-7.2-5.77L77,45.16,96.45,60.58ZM24.67,23l.2-.16c5.11-4,12.12-9.41,23.51-.38L73.55,42.43,54,57.72l-36.58-29C18.9,27.55,21.26,25.67,24.67,23Z"/></svg>