<svg id="Layer_1" data-name="Layer 1" xmlns="http://www.w3.org/2000/svg" viewBox="0 0 455.64 153.44"><defs><style>.cls-1{fill:#979797;}.cls-2{fill:#008de4;}</style></defs><title>dash_wallet_icon</title><polygon class="cls-1" points="252.86 148.56 250.88 148.28 251.01 147.29 271.15 4.3 273.13 4.58 273 5.57 252.86 148.56"/><path class="cls-2" d="M55.43,49.09H31.48l-2,11.09,21.61,0c10.64,0,13.79,3.87,13.7,10.28a46.75,46.75,0,0,1-2.08,10.64c-1.65,4.8-5,10.27-17.65,10.26h-21l-2,11.1H46c8.43,0,12-1,15.81-2.73,8.42-3.89,13.42-12.2,15.43-23C80.21,60.57,76.49,49.09,55.43,49.09Z"/><path class="cls-2" d="M132.7,75.5c-1.36,7.71,2.33,12.21,10.05,12.21h9.78a1.93,1.93,0,0,1,2.09,2.58,2.83,2.83,0,0,1-3,2.57H131.19l-1.69,9.65h23.1c7.72,0,12.94-4.51,14.31-12.22s-2.33-12.22-10-12.22h-9.78A1.93,1.93,0,0,1,145,75.5a2.84,2.84,0,0,1,3-2.58h19.59l1.77-9.64H147.09C139.38,63.28,134.07,67.78,132.7,75.5Z"/><path class="cls-2" d="M82.18,82.89c-2.25,12.7,3.46,19.61,16.16,19.61h22.51l6.92-39.23H105.26C92.56,63.27,84.36,70.19,82.18,82.89Zm30.8-10-3.46,19.94h-6.34c-6.91,0-9.48-3.06-8.2-10s5.29-10,12.21-10Z"/><path class="cls-2" d="M200.75,63.27H191l2.51-14.18h-13l-9.42,53.41h13l5.14-29.26h6.4c4.51,0,6.33,1.93,5.61,6.43l-4,22.83h13l4-22.83C216.26,68.26,212.16,63.27,200.75,63.27Z"/><path class="cls-2" d="M44.64,74.76c.78-3.23,1-4.54,1-4.54H21.15c-6.27,0-7.17,4.08-7.77,6.55-.77,3.24-1,4.55-1,4.55H36.87C43.15,81.32,44.05,77.23,44.64,74.76Z"/><polygon class="cls-2" points="369.59 131.58 373.39 131.58 377.89 109.02 374.09 109.02 369.59 131.58"/><path class="cls-2" d="M363.8,117.75q-1.64-2.59-5.53-2.59a9.12,9.12,0,0,0-4.67,1.22,8.77,8.77,0,0,0-3.28,3.39,9.91,9.91,0,0,0-1.2,4.88,7.42,7.42,0,0,0,.94,3.81,6.32,6.32,0,0,0,2.57,2.48,8.3,8.3,0,0,0,8.92-1l-.33,1.67h3.62l3.22-16.24h-3.8Zm-1.7,7.85a5.4,5.4,0,0,1-2,2.16,5.35,5.35,0,0,1-2.87.78,4.37,4.37,0,0,1-3.16-1.08,4,4,0,0,1-1.13-3,6.58,6.58,0,0,1,.73-3.14,5.54,5.54,0,0,1,2-2.16,5.35,5.35,0,0,1,2.87-.78,4.4,4.4,0,0,1,3.17,1.08,4,4,0,0,1,1.12,3A6.58,6.58,0,0,1,362.1,125.6Z"/><polygon class="cls-2" points="347.89 110.3 339.17 126.62 337.07 110.3 333.39 110.3 324.67 126.47 322.57 110.3 318.65 110.3 321.45 131.58 325.67 131.58 334.19 115.98 336.31 131.58 340.54 131.58 351.82 110.3 347.89 110.3"/><path class="cls-2" d="M412.15,118.51h4.37l.61-3h-4.38l.76-3.71h-3.8l-.73,3.71h-2.64l-.61,3h2.65l-1.55,7.66a5.82,5.82,0,0,0-.13,1.27,4.11,4.11,0,0,0,1.28,3.2,4.84,4.84,0,0,0,3.38,1.15,7.26,7.26,0,0,0,3.92-1l-.67-2.8a3.69,3.69,0,0,1-2.13.64c-1.28,0-1.92-.61-1.92-1.82a7,7,0,0,1,.07-.7Z"/><polygon class="cls-2" points="378.14 131.58 381.94 131.58 386.44 109.02 382.64 109.02 378.14 131.58"/><path class="cls-2" d="M396.21,115.16a9.59,9.59,0,0,0-4.82,1.22,8.67,8.67,0,0,0-3.35,3.39,9.91,9.91,0,0,0-1.2,4.88,7.13,7.13,0,0,0,1,3.75,6.4,6.4,0,0,0,2.78,2.51,9.53,9.53,0,0,0,4.24.88,12,12,0,0,0,3.66-.56,8.16,8.16,0,0,0,3-1.69l-1.58-2.64a6.25,6.25,0,0,1-2.07,1.23,7.7,7.7,0,0,1-2.62.44q-4.59,0-4.68-4h12.89a11,11,0,0,0,.25-2.31,6.79,6.79,0,0,0-2-5.22A7.69,7.69,0,0,0,396.21,115.16Zm-5.32,6.9A5.13,5.13,0,0,1,396,118.2a4.42,4.42,0,0,1,3.06,1,3.54,3.54,0,0,1,1.11,2.84Z"/><path class="cls-2" d="M444.86,42.61l-2.2-1.89c-.12-.1-3-2.59-10.45-8.43l-.23-.18c-5.73-4.51-16.4-12.9-32.11-.61L370.31,54.6l-29-23c-15.64-12.39-26.35-4.07-32.12.4l-.22.17c-7.47,5.8-10.39,8.27-10.51,8.37l-2.21,1.88,58.41,46.28c6.17,4.89,11.57,6.55,16.21,6.5,7.12-.07,12.42-4.19,15.91-6.9l.23-.17c7.47-5.8,10.38-8.26,10.51-8.37l2.2-1.87ZM402.8,35.25c12.77-10,20.55-3.87,26.24.6l.22.18c3.79,3,6.4,5.09,8.05,6.44L395.88,74.85,374.16,57.64ZM383.2,84.76c-12.77,10-20.55,3.86-26.23-.61l-.23-.17c-3.79-3-6.4-5.09-8.05-6.44l21.6-16.88L392,77.87ZM311.88,36l.22-.18c5.71-4.43,13.53-10.5,26.25-.43l28.1,22.27L344.62,74.68,303.79,42.33C305.44,41,308.07,38.9,311.88,36Z"/></svg>