<svg id="Layer_1" data-name="Layer 1" xmlns="http://www.w3.org/2000/svg" xmlns:xlink="http://www.w3.org/1999/xlink" viewBox="0 0 365.41 98.72"><defs><style>.cls-1,.cls-2{fill:none;}.cls-2{clip-rule:evenodd;}.cls-3{clip-path:url(#clip-path);}.cls-4{clip-path:url(#clip-path-2);}.cls-5{clip-path:url(#clip-path-3);}.cls-6{clip-path:url(#clip-path-4);}.cls-7{clip-path:url(#clip-path-5);}.cls-8{clip-path:url(#clip-path-6);}.cls-9{clip-path:url(#clip-path-7);}.cls-10{fill:#008de4;}.cls-11{clip-path:url(#clip-path-8);}.cls-12{clip-path:url(#clip-path-9);}.cls-13{clip-path:url(#clip-path-10);}.cls-14{clip-path:url(#clip-path-11);}.cls-15{clip-path:url(#clip-path-12);}</style><clipPath id="clip-path"><path class="cls-1" d="M95.17,643c-24.12,0-36.81,8.88-43.44,25.05-1.69,4.11-2.52,7-4.36,14.5-2.17,8.84-3.88,16.06-5.16,21.78-.36,1.61-.67,3-.93,4.19l229,.05c24.12,0,36.82-8.87,43.45-25,1.68-4.11,2.52-7,4.35-14.5,2.17-8.84,3.88-16.07,5.16-21.78.37-1.61.67-3,.93-4.19Zm0-4,233.86.06-.47,2.39c-.06.26-.17.8-.34,1.62-.29,1.37-.66,3-1.11,5.06-1.29,5.74-3,13-5.19,21.86-1.88,7.65-2.75,10.71-4.53,15.06-7.24,17.65-21.37,27.52-47.15,27.52l-233.86-.05.48-2.39q.07-.39.33-1.62c.3-1.37.66-3,1.12-5.06,1.29-5.74,3-13,5.18-21.86C45.37,674,46.24,670.9,48,666.55,55.26,648.9,69.4,639,95.17,639Z"/></clipPath><clipPath id="clip-path-2"><path class="cls-2" d="M274,673.49a5.37,5.37,0,0,0-5.4,4.06h9.79a3.72,3.72,0,0,0-1.17-3A4.67,4.67,0,0,0,274,673.49Zm8.07,4.29a11.52,11.52,0,0,1-.26,2.43H268.25q.11,4.18,4.93,4.19a8,8,0,0,0,2.75-.46,6.23,6.23,0,0,0,2.18-1.3l1.66,2.79a8.52,8.52,0,0,1-3.15,1.77,12.3,12.3,0,0,1-3.85.59,10.22,10.22,0,0,1-4.47-.92,6.84,6.84,0,0,1-2.93-2.64,7.61,7.61,0,0,1-1-4,10.43,10.43,0,0,1,1.26-5.13,9.09,9.09,0,0,1,3.52-3.57,10.17,10.17,0,0,1,5.08-1.28,8.06,8.06,0,0,1,5.72,2A7.13,7.13,0,0,1,282.08,677.78Zm-30.89,6.59a5.61,5.61,0,0,0,5.1-3.09A7.11,7.11,0,0,0,257,678a4.15,4.15,0,0,0-1.18-3.15,4.61,4.61,0,0,0-3.33-1.14,5.61,5.61,0,0,0-5.1,3.09,7.11,7.11,0,0,0-.75,3.31,4.13,4.13,0,0,0,1.18,3.15A4.61,4.61,0,0,0,251.19,684.37Zm12.7-20.54-4.73,23.74h-3.81l.35-1.76a8.7,8.7,0,0,1-9.36,1.09,6.65,6.65,0,0,1-2.7-2.61,7.89,7.89,0,0,1-1-4,10.55,10.55,0,0,1,1.25-5.15,9.1,9.1,0,0,1,3.44-3.55,9.59,9.59,0,0,1,4.91-1.28,8.42,8.42,0,0,1,3.51.67,5.25,5.25,0,0,1,2.32,2l1.82-9.12Zm-33.13,20.54a5.64,5.64,0,0,0,3-.82,5.74,5.74,0,0,0,2.09-2.27,7,7,0,0,0,.77-3.31,4.15,4.15,0,0,0-1.18-3.15,4.61,4.61,0,0,0-3.33-1.14,5.64,5.64,0,0,0-3,.82,5.74,5.74,0,0,0-2.09,2.27,7,7,0,0,0-.77,3.31,4.17,4.17,0,0,0,1.18,3.15A4.61,4.61,0,0,0,230.76,684.37Zm-.25,3.42a9.57,9.57,0,0,1-4.37-.94,7,7,0,0,1-2.9-2.64,7.48,7.48,0,0,1-1-3.94,10.2,10.2,0,0,1,1.29-5.12,9.31,9.31,0,0,1,3.62-3.56,10.49,10.49,0,0,1,5.23-1.3,9.82,9.82,0,0,1,4.39.93,6.8,6.8,0,0,1,2.91,2.62,7.48,7.48,0,0,1,1,3.94,10,10,0,0,1-1.31,5.12,9.46,9.46,0,0,1-3.63,3.58A10.39,10.39,0,0,1,230.51,687.79Zm-9.39-22.62-4.48,22.4h-3.42L204,671.89l-3.13,15.68h-4.13l4.48-22.4h3.42l9.22,15.68,3.1-15.68Zm-30.86,7.52a6.13,6.13,0,0,1,2.74-1.86,12.23,12.23,0,0,1,3.86-.54l-.74,3.81a5.19,5.19,0,0,0-1-.1q-4.9,0-5.92,5.15l-1.7,8.42h-4l3.39-17.09h3.81Zm-16.49.8a5.37,5.37,0,0,0-5.4,4.06h9.79a3.72,3.72,0,0,0-1.17-3A4.67,4.67,0,0,0,173.77,673.49Zm8.07,4.29a11.52,11.52,0,0,1-.26,2.43H168q.11,4.18,4.93,4.19a8,8,0,0,0,2.75-.46,6.23,6.23,0,0,0,2.18-1.3l1.66,2.79a8.52,8.52,0,0,1-3.15,1.77,12.3,12.3,0,0,1-3.85.59,10.22,10.22,0,0,1-4.47-.92,6.84,6.84,0,0,1-2.93-2.64,7.61,7.61,0,0,1-1-4,10.43,10.43,0,0,1,1.26-5.13,9.09,9.09,0,0,1,3.52-3.57,10.17,10.17,0,0,1,5.08-1.28,8.06,8.06,0,0,1,5.72,2A7.13,7.13,0,0,1,181.84,677.78Zm-25,4.06a5.56,5.56,0,0,0-.07.74c0,1.28.67,1.92,2,1.92a4,4,0,0,0,2.24-.67l.7,2.94a7.66,7.66,0,0,1-4.13,1,5.1,5.1,0,0,1-3.55-1.21,4.32,4.32,0,0,1-1.34-3.36,6.58,6.58,0,0,1,.13-1.35l1.63-8.06h-2.79l.64-3.2h2.79l.77-3.9h4l-.8,3.9h4.6l-.64,3.2h-4.6Zm-16.05,5.95a16,16,0,0,1-4.14-.52,9.56,9.56,0,0,1-3.06-1.33l1.67-3.07a8.34,8.34,0,0,0,2.65,1.21,12.17,12.17,0,0,0,3.3.45,6.29,6.29,0,0,0,2.9-.53,1.65,1.65,0,0,0,1-1.52,1.18,1.18,0,0,0-.81-1.12,15.6,15.6,0,0,0-2.58-.73,22.87,22.87,0,0,1-3-.76,4.81,4.81,0,0,1-2-1.31,3.56,3.56,0,0,1-.85-2.51,4.9,4.9,0,0,1,2.23-4.21,10.15,10.15,0,0,1,5.9-1.55,14.44,14.44,0,0,1,3.43.4,9.07,9.07,0,0,1,2.72,1.07l-1.48,3.07a7.81,7.81,0,0,0-2.38-1,11.53,11.53,0,0,0-2.67-.32,5.7,5.7,0,0,0-2.87.58,1.69,1.69,0,0,0-1,1.5,1.23,1.23,0,0,0,.85,1.2,14,14,0,0,0,2.64.75,22.71,22.71,0,0,1,2.94.76,4.67,4.67,0,0,1,2,1.29A3.42,3.42,0,0,1,149,682a4.84,4.84,0,0,1-2.24,4.26A10.57,10.57,0,0,1,140.79,687.79ZM122,684.37a5.58,5.58,0,0,0,3-.82,5.69,5.69,0,0,0,2.1-2.27,7,7,0,0,0,.77-3.31,4.15,4.15,0,0,0-1.19-3.15,4.6,4.6,0,0,0-3.32-1.14,5.62,5.62,0,0,0-3,.82,5.74,5.74,0,0,0-2.09,2.27,6.88,6.88,0,0,0-.77,3.31,4.13,4.13,0,0,0,1.18,3.15A4.61,4.61,0,0,0,122,684.37Zm11.39-13.89L130,687.57h-3.81l.35-1.76a8.09,8.09,0,0,1-5.56,2,8.22,8.22,0,0,1-3.83-.89,6.65,6.65,0,0,1-2.7-2.61,7.88,7.88,0,0,1-1-4,10.43,10.43,0,0,1,1.26-5.13,9.07,9.07,0,0,1,3.46-3.57,9.56,9.56,0,0,1,4.91-1.28q4.09,0,5.82,2.72l.48-2.53Zm-21-5.31-4.48,22.4h-3.94l2.91-14.69L97.26,685H95.4l-5.12-12.42-3,15h-4l4.48-22.4h3.39l5.92,14.91,11.61-14.91Z"/></clipPath><clipPath id="clip-path-3"><path class="cls-1" d="M90.17,172c-24.12,0-36.81,8.88-43.44,25.05-1.69,4.11-2.52,7-4.36,14.5-2.17,8.84-3.88,16.06-5.16,21.78-.36,1.61-.67,3-.93,4.19l239,.05c24.12,0,36.82-8.87,43.45-25,1.68-4.11,2.52-7,4.35-14.5,2.17-8.84,3.88-16.07,5.16-21.78.37-1.61.67-3,.93-4.19Zm0-4L334,168.1l-.47,2.39c-.06.26-.17.8-.34,1.62-.29,1.37-.66,3-1.11,5.06-1.29,5.74-3,13-5.19,21.86-1.88,7.65-2.75,10.71-4.53,15.06-7.24,17.65-21.38,27.52-47.15,27.52l-243.86-.05.48-2.39q.08-.39.33-1.62c.3-1.37.66-3.05,1.12-5.06,1.29-5.74,3-13,5.18-21.86,1.88-7.65,2.75-10.71,4.54-15.06C50.26,177.92,64.4,168,90.17,168Z"/></clipPath><clipPath id="clip-path-4"><path class="cls-2" d="M269.83,213.34a5.59,5.59,0,0,0,5.1-3.09,7.11,7.11,0,0,0,.75-3.31,4.16,4.16,0,0,0-1.18-3.15,4.61,4.61,0,0,0-3.33-1.14,5.74,5.74,0,0,0-3,.82,5.6,5.6,0,0,0-2.09,2.27,7.14,7.14,0,0,0-.76,3.31,4.18,4.18,0,0,0,1.19,3.16A4.65,4.65,0,0,0,269.83,213.34Zm12.7-20.54-4.74,23.74H274l.35-1.76a8.23,8.23,0,0,1-5.54,2,8.07,8.07,0,0,1-3.82-.9,6.73,6.73,0,0,1-2.71-2.61,7.87,7.87,0,0,1-1-4,10.59,10.59,0,0,1,1.25-5.16,9.17,9.17,0,0,1,3.44-3.55,9.59,9.59,0,0,1,4.91-1.28,8.62,8.62,0,0,1,3.51.67,5.25,5.25,0,0,1,2.32,2l1.82-9.12ZM252,199.26a6.55,6.55,0,0,1,4.56,1.51A5.41,5.41,0,0,1,258.2,205a12.37,12.37,0,0,1-.22,2l-1.89,9.47h-4l1.86-9.37a7.2,7.2,0,0,0,.12-1.32q0-3.1-3.42-3.1A5.43,5.43,0,0,0,247,204a6.4,6.4,0,0,0-1.95,3.7l-1.79,8.86h-4l3.39-17.09h3.81l-.39,1.89A8.49,8.49,0,0,1,252,199.26Zm-22.44,3.2a5.48,5.48,0,0,0-3.44,1.09,5.57,5.57,0,0,0-2,3h9.79a3.74,3.74,0,0,0-1.16-3A4.69,4.69,0,0,0,229.52,202.46Zm8.06,4.29a11.52,11.52,0,0,1-.25,2.43H223.76c.06,2.8,1.71,4.19,4.93,4.19a8,8,0,0,0,2.75-.46,6.33,6.33,0,0,0,2.18-1.3l1.66,2.79a8.54,8.54,0,0,1-3.15,1.77,12.37,12.37,0,0,1-3.86.6,10,10,0,0,1-4.46-.93,6.78,6.78,0,0,1-2.93-2.64,7.57,7.57,0,0,1-1-3.95,10.49,10.49,0,0,1,1.26-5.14,9.09,9.09,0,0,1,3.52-3.57,10.1,10.1,0,0,1,5.07-1.28,8.08,8.08,0,0,1,5.73,2A7.14,7.14,0,0,1,237.58,206.75Zm-30.05,10.11a16.58,16.58,0,0,1-5-.73,10.44,10.44,0,0,1-3.72-1.89l1.76-3.27a11,11,0,0,0,3.35,1.78,12.17,12.17,0,0,0,3.95.66,7.83,7.83,0,0,0,3.92-.85,2.6,2.6,0,0,0,1.46-2.32,1.81,1.81,0,0,0-.6-1.39,4.49,4.49,0,0,0-1.47-.92c-.58-.23-1.4-.5-2.45-.8a28.22,28.22,0,0,1-3.52-1.23,6.07,6.07,0,0,1-2.3-1.77,4.75,4.75,0,0,1-1-3.08,6.11,6.11,0,0,1,1.23-3.8,7.93,7.93,0,0,1,3.44-2.53,13.4,13.4,0,0,1,5.09-.9,16.75,16.75,0,0,1,4.13.5,11.43,11.43,0,0,1,3.36,1.39l-1.63,3.3a9.67,9.67,0,0,0-2.82-1.28,11.77,11.77,0,0,0-3.26-.45,7.39,7.39,0,0,0-4,.91,2.75,2.75,0,0,0-1.45,2.42,1.9,1.9,0,0,0,.61,1.44,4.52,4.52,0,0,0,1.47.91c.57.22,1.42.5,2.53.85a30,30,0,0,1,3.45,1.18,6,6,0,0,1,2.29,1.7,4.33,4.33,0,0,1,.94,2.91,6.21,6.21,0,0,1-1.23,3.84,7.86,7.86,0,0,1-3.49,2.53A14,14,0,0,1,207.53,216.86Zm-15.41-6.05c0,.35-.06.59-.06.74,0,1.28.67,1.92,2,1.92a3.89,3.89,0,0,0,2.24-.67l.7,2.94a7.66,7.66,0,0,1-4.13,1,5.1,5.1,0,0,1-3.55-1.22,4.28,4.28,0,0,1-1.34-3.36,7.18,7.18,0,0,1,.12-1.34l1.64-8.07H187l.64-3.2h2.79l.76-3.9h4l-.8,3.9H199l-.64,3.2h-4.61Zm-14.6-11.55a6.55,6.55,0,0,1,4.56,1.51,5.41,5.41,0,0,1,1.68,4.25,12.37,12.37,0,0,1-.22,2l-1.89,9.47h-4l1.86-9.37a7.2,7.2,0,0,0,.12-1.32q0-3.1-3.42-3.1a5.43,5.43,0,0,0-3.65,1.23,6.4,6.4,0,0,0-1.95,3.7l-1.79,8.86h-4l3.39-17.09H172l-.39,1.89A8.49,8.49,0,0,1,177.52,199.26Zm-25.7,14.08a5.66,5.66,0,0,0,3-.81,5.78,5.78,0,0,0,2.1-2.28,7,7,0,0,0,.77-3.31,4.17,4.17,0,0,0-1.19-3.15,4.61,4.61,0,0,0-3.33-1.14,5.67,5.67,0,0,0-3,.82,5.76,5.76,0,0,0-2.1,2.27,7,7,0,0,0-.76,3.31,4.17,4.17,0,0,0,1.18,3.16A4.65,4.65,0,0,0,151.82,213.34Zm11.39-13.89-3.39,17.09H156l.35-1.76a8.7,8.7,0,0,1-9.39,1.09,6.65,6.65,0,0,1-2.7-2.61,7.78,7.78,0,0,1-1-4,10.39,10.39,0,0,1,1.27-5.14,9.18,9.18,0,0,1,3.45-3.57,9.6,9.6,0,0,1,4.92-1.28q4.09,0,5.82,2.72l.48-2.53ZM136,210.81c0,.35-.06.59-.06.74q0,1.92,2,1.92a3.89,3.89,0,0,0,2.24-.67l.71,2.94a7.69,7.69,0,0,1-4.13,1,5.08,5.08,0,0,1-3.55-1.22,4.29,4.29,0,0,1-1.35-3.36,6.41,6.41,0,0,1,.13-1.34l1.63-8.07h-2.78l.64-3.2h2.78l.77-3.9h4l-.8,3.9h4.61l-.64,3.2H137.6Zm-16,6a16.11,16.11,0,0,1-4.15-.53,9.18,9.18,0,0,1-3-1.33l1.66-3.07a8.18,8.18,0,0,0,2.66,1.21,12,12,0,0,0,3.29.45,6.17,6.17,0,0,0,2.9-.53,1.65,1.65,0,0,0,1-1.52,1.19,1.19,0,0,0-.82-1.12,15,15,0,0,0-2.58-.73,25.31,25.31,0,0,1-3-.75,4.84,4.84,0,0,1-2-1.32A3.5,3.5,0,0,1,115,205a4.89,4.89,0,0,1,2.22-4.21,10.16,10.16,0,0,1,5.91-1.55,15,15,0,0,1,3.42.4,9.23,9.23,0,0,1,2.72,1.07l-1.47,3.08a8,8,0,0,0-2.39-1,11.47,11.47,0,0,0-2.67-.32,5.74,5.74,0,0,0-2.86.58,1.72,1.72,0,0,0-1,1.5,1.23,1.23,0,0,0,.85,1.2,15.16,15.16,0,0,0,2.64.76,21,21,0,0,1,2.94.75,4.87,4.87,0,0,1,2,1.29,3.47,3.47,0,0,1,.83,2.44,4.83,4.83,0,0,1-2.24,4.25A10.53,10.53,0,0,1,120,216.77Zm-14.8-17.51a6.55,6.55,0,0,1,4.56,1.51A5.41,5.41,0,0,1,111.4,205a12.37,12.37,0,0,1-.22,2l-1.89,9.47h-4l1.86-9.37a7.2,7.2,0,0,0,.13-1.32q0-3.1-3.43-3.1A5.43,5.43,0,0,0,100.2,204a6.4,6.4,0,0,0-2,3.7l-1.79,8.86h-4l3.39-17.09h3.81l-.38,1.89A8.47,8.47,0,0,1,105.16,199.26Zm-17.8-5.12h4.16L87,216.54H82.88Z"/></clipPath><clipPath id="clip-path-5"><path class="cls-1" d="M95.17,343.52c-24.12,0-36.81,8.87-43.44,25-1.69,4.11-2.52,7.05-4.36,14.5-2.17,8.85-3.88,16.07-5.16,21.78q-.54,2.42-.93,4.2l229,0c24.12,0,36.82-8.87,43.45-25,1.68-4.11,2.52-7.05,4.35-14.5,2.17-8.85,3.88-16.07,5.16-21.79.37-1.61.67-3,.93-4.19Zm0-4,233.86.05-.47,2.39c-.06.27-.17.8-.34,1.62-.29,1.37-.66,3.05-1.11,5.06-1.29,5.74-3,13-5.19,21.86-1.88,7.65-2.75,10.71-4.53,15.06-7.24,17.65-21.37,27.53-47.15,27.53L36.38,413l.48-2.39c0-.27.16-.81.33-1.63.3-1.36.66-3,1.12-5.06,1.29-5.74,3-13,5.18-21.86,1.88-7.64,2.75-10.7,4.54-15.06C55.26,349.4,69.4,339.52,95.17,339.52Z"/></clipPath><clipPath id="clip-path-6"><path class="cls-1" d="M95.17,16.58c-24.12,0-36.81,8.87-43.44,25-1.69,4.11-2.52,7-4.36,14.5C45.2,65,43.49,72.18,42.21,77.9c-.36,1.61-.67,3-.93,4.19l229,.06c24.12,0,36.82-8.88,43.45-25,1.68-4.11,2.52-7,4.35-14.51,2.17-8.84,3.88-16.07,5.16-21.78.37-1.61.67-3,.93-4.19Zm0-4L329,12.63,328.56,15c-.06.26-.17.8-.34,1.62-.29,1.37-.66,3.05-1.11,5.06-1.29,5.74-3,13-5.19,21.86-1.88,7.65-2.75,10.71-4.53,15.06C310.15,76.27,296,86.15,270.24,86.15L36.38,86.09l.48-2.39q.07-.39.33-1.62c.3-1.37.66-3,1.12-5.06,1.29-5.74,3-13,5.18-21.86C45.37,47.51,46.24,44.45,48,40.1,55.26,22.46,69.4,12.58,95.17,12.58Z"/></clipPath><clipPath id="clip-path-7"><rect class="cls-1" x="-1271.74" y="-2219.85" width="2742" height="8582"/></clipPath><clipPath id="clip-path-8"><path class="cls-1" d="M95.17,503.56c-24.12,0-36.81,8.87-43.44,25-1.69,4.11-2.52,7-4.36,14.5-2.17,8.85-3.88,16.07-5.16,21.78q-.54,2.42-.93,4.2l229,0c24.12,0,36.82-8.87,43.45-25,1.68-4.11,2.52-7.05,4.35-14.5,2.17-8.85,3.88-16.07,5.16-21.79.37-1.61.67-3,.93-4.19Zm0-4,233.86.05-.47,2.39c-.06.27-.17.8-.34,1.63q-.44,2-1.11,5.05c-1.3,5.74-3,13-5.19,21.86-1.88,7.65-2.75,10.71-4.53,15.07-7.24,17.64-21.38,27.52-47.15,27.52l-233.86,0,.48-2.39c0-.27.16-.8.33-1.63.29-1.36.66-3,1.12-5.06,1.29-5.74,3-13,5.18-21.85,1.88-7.65,2.75-10.71,4.54-15.07C55.26,509.44,69.4,499.56,95.17,499.56Z"/></clipPath><clipPath id="clip-path-9"><path class="cls-2" d="M269.33,385.3a5.74,5.74,0,0,0,3-.82,5.6,5.6,0,0,0,2.09-2.27,7,7,0,0,0,.76-3.31,4.18,4.18,0,0,0-1.19-3.16,4.65,4.65,0,0,0-3.33-1.13,5.69,5.69,0,0,0-3,.81,5.58,5.58,0,0,0-2.1,2.28,7.11,7.11,0,0,0-.75,3.31,4.16,4.16,0,0,0,1.18,3.15A4.61,4.61,0,0,0,269.33,385.3ZM282,364.75,277.3,388.5h-3.81l.35-1.76a8.19,8.19,0,0,1-5.53,2,8.11,8.11,0,0,1-3.83-.9,6.56,6.56,0,0,1-2.7-2.6,7.91,7.91,0,0,1-1-4,10.52,10.52,0,0,1,1.24-5.15,9.11,9.11,0,0,1,3.44-3.55,9.53,9.53,0,0,1,4.92-1.28,8.41,8.41,0,0,1,3.5.67,5.24,5.24,0,0,1,2.32,2l1.82-9.12Zm-30.56,6.47a6.6,6.6,0,0,1,4.56,1.5,5.41,5.41,0,0,1,1.68,4.26,12.47,12.47,0,0,1-.23,2l-1.89,9.48h-4l1.86-9.38a7.1,7.1,0,0,0,.13-1.31q0-3.1-3.43-3.11a5.36,5.36,0,0,0-3.64,1.24,6.38,6.38,0,0,0-2,3.69l-1.79,8.87h-4l3.39-17.09H246l-.38,1.89A8.43,8.43,0,0,1,251.47,371.22ZM229,374.42a5.34,5.34,0,0,0-5.4,4.06h9.79a3.71,3.71,0,0,0-1.17-3A4.62,4.62,0,0,0,229,374.42Zm8.07,4.28a11.54,11.54,0,0,1-.26,2.44H223.26q.11,4.19,4.93,4.19a8,8,0,0,0,2.75-.47,6.37,6.37,0,0,0,2.18-1.29l1.66,2.78a8.54,8.54,0,0,1-3.15,1.78,12.6,12.6,0,0,1-3.85.59,10.08,10.08,0,0,1-4.47-.93,6.84,6.84,0,0,1-2.93-2.64,7.57,7.57,0,0,1-1-3.95,10.49,10.49,0,0,1,1.26-5.14,9.13,9.13,0,0,1,3.52-3.56,10.07,10.07,0,0,1,5.08-1.28,8,8,0,0,1,5.72,2A7.12,7.12,0,0,1,237.09,378.7ZM207,388.82a16.64,16.64,0,0,1-5-.74,10.3,10.3,0,0,1-3.71-1.89l1.76-3.26a11,11,0,0,0,3.34,1.77,12.17,12.17,0,0,0,3.95.66,7.7,7.7,0,0,0,3.92-.85,2.59,2.59,0,0,0,1.46-2.32,1.85,1.85,0,0,0-.59-1.39,4.7,4.7,0,0,0-1.47-.91c-.59-.24-1.41-.5-2.45-.8a31.19,31.19,0,0,1-3.52-1.23,6.15,6.15,0,0,1-2.31-1.78,4.72,4.72,0,0,1-1-3.07,6.11,6.11,0,0,1,1.24-3.81,7.87,7.87,0,0,1,3.44-2.53,13.35,13.35,0,0,1,5.08-.89,16.75,16.75,0,0,1,4.13.49,11.71,11.71,0,0,1,3.36,1.39l-1.63,3.3a9.81,9.81,0,0,0-2.82-1.28,11.72,11.72,0,0,0-3.26-.45,7.47,7.47,0,0,0-3.95.91,2.77,2.77,0,0,0-1.46,2.42,1.87,1.87,0,0,0,.61,1.44,4.56,4.56,0,0,0,1.47.91c.58.23,1.42.51,2.53.85a30.3,30.3,0,0,1,3.46,1.18,6.16,6.16,0,0,1,2.28,1.7,4.37,4.37,0,0,1,.95,2.91,6.21,6.21,0,0,1-1.23,3.84,8,8,0,0,1-3.49,2.53A13.9,13.9,0,0,1,207,388.82Zm-17.45-14.4a5.54,5.54,0,0,0-3.44,1.08,5.62,5.62,0,0,0-2,3H194a3.67,3.67,0,0,0-1.16-3A4.64,4.64,0,0,0,189.58,374.42Zm8.06,4.28a11.54,11.54,0,0,1-.25,2.44H183.82c.06,2.79,1.71,4.19,4.93,4.19a8,8,0,0,0,2.75-.47,6.46,6.46,0,0,0,2.18-1.29l1.66,2.78a8.54,8.54,0,0,1-3.15,1.78,12.67,12.67,0,0,1-3.86.59,10.07,10.07,0,0,1-4.46-.93,6.78,6.78,0,0,1-2.93-2.64,7.57,7.57,0,0,1-1-3.95,10.49,10.49,0,0,1,1.26-5.14,9.06,9.06,0,0,1,3.52-3.56,10,10,0,0,1,5.07-1.28,8,8,0,0,1,5.73,2A7.12,7.12,0,0,1,197.64,378.7Zm-25,4.07a7.08,7.08,0,0,0-.06.73q0,1.92,2,1.92a3.86,3.86,0,0,0,2.24-.67l.71,2.95a7.69,7.69,0,0,1-4.13,1,5.08,5.08,0,0,1-3.55-1.22,4.29,4.29,0,0,1-1.35-3.36,7.25,7.25,0,0,1,.13-1.34l1.63-8.06h-2.78l.64-3.2h2.78l.77-3.91h4l-.8,3.91h4.61l-.64,3.2h-4.61ZM154,385.3a5.64,5.64,0,0,0,5.12-3.09,7,7,0,0,0,.77-3.31,4.18,4.18,0,0,0-1.19-3.16,4.64,4.64,0,0,0-3.32-1.13,5.7,5.7,0,0,0-3,.81,5.77,5.77,0,0,0-2.09,2.28,6.88,6.88,0,0,0-.77,3.31,4.16,4.16,0,0,0,1.18,3.15A4.61,4.61,0,0,0,154,385.3Zm11.39-13.89L162,388.5H158.2l.35-1.76a8.72,8.72,0,0,1-9.39,1.08,6.56,6.56,0,0,1-2.7-2.6,7.91,7.91,0,0,1-1-4,10.49,10.49,0,0,1,1.26-5.14,9.11,9.11,0,0,1,3.46-3.56,9.47,9.47,0,0,1,4.91-1.28c2.73,0,4.67.9,5.82,2.72l.48-2.53Zm-18.44,0L136.24,388.5h-4.13l-3.93-17.09h3.93l2.85,12.7,8-12.7Zm-22.12-2.82a2.39,2.39,0,0,1-1.73-.65,2.14,2.14,0,0,1-.67-1.59,2.45,2.45,0,0,1,.75-1.82,2.7,2.7,0,0,1,2-.74,2.44,2.44,0,0,1,1.73.63,2,2,0,0,1,.67,1.52,2.6,2.6,0,0,1-.75,1.92A2.71,2.71,0,0,1,124.84,368.59Zm-2.91,2.82h4l-3.4,17.09h-4Zm-9.68,2.21a6.05,6.05,0,0,1,2.74-1.86,12.21,12.21,0,0,1,3.85-.54l-.73,3.8a6.06,6.06,0,0,0-1-.09c-3.27,0-5.24,1.71-5.92,5.15l-1.7,8.42h-4l3.39-17.09h3.81Zm-17.77,4.89a7.16,7.16,0,0,0,4.69-1.36,4.79,4.79,0,0,0,1.65-3.92,3.15,3.15,0,0,0-1.23-2.7,5.86,5.86,0,0,0-3.54-.91H91.31l-1.76,8.89Zm2-12.41a9.89,9.89,0,0,1,6.29,1.77,6,6,0,0,1,2.22,5,9,9,0,0,1-1.3,4.91,8.33,8.33,0,0,1-3.71,3.17,13.64,13.64,0,0,1-5.68,1.1H88.85l-1.31,6.47H83.38l4.48-22.4Z"/></clipPath><clipPath id="clip-path-10"><path class="cls-2" d="M271.74,55.39a7.22,7.22,0,0,0-.06.74q0,1.92,2,1.92a3.94,3.94,0,0,0,2.24-.67l.71,2.94a7.69,7.69,0,0,1-4.13,1A5.08,5.08,0,0,1,269,60.13a4.29,4.29,0,0,1-1.35-3.36,7.36,7.36,0,0,1,.13-1.35l1.63-8.06h-2.78l.64-3.2H270l.77-3.9h4l-.8,3.9h4.61l-.64,3.2h-4.61ZM256.37,47a5.48,5.48,0,0,0-3.44,1.09,5.6,5.6,0,0,0-2,3h9.8a3.72,3.72,0,0,0-1.17-3A4.67,4.67,0,0,0,256.37,47Zm8.07,4.29a11.52,11.52,0,0,1-.26,2.43H250.61c.07,2.8,1.71,4.19,4.93,4.19a8,8,0,0,0,2.75-.46,6.23,6.23,0,0,0,2.18-1.3L262.13,59A8.38,8.38,0,0,1,259,60.75a12.37,12.37,0,0,1-3.86.59,10.07,10.07,0,0,1-4.46-.92,6.78,6.78,0,0,1-2.93-2.64,7.58,7.58,0,0,1-1-4A10.45,10.45,0,0,1,248,48.69a9,9,0,0,1,3.52-3.57,10.16,10.16,0,0,1,5.07-1.28,8.08,8.08,0,0,1,5.73,2A7.13,7.13,0,0,1,264.44,51.33ZM242.28,37.38h4l-4.73,23.74h-4Zm-9,0h4l-4.73,23.74h-4ZM215.54,57.92a5.64,5.64,0,0,0,3-.82,5.74,5.74,0,0,0,2.09-2.27,6.88,6.88,0,0,0,.77-3.31,4.16,4.16,0,0,0-1.18-3.15,4.61,4.61,0,0,0-3.33-1.14,5.58,5.58,0,0,0-3,.82,5.69,5.69,0,0,0-2.1,2.27,7,7,0,0,0-.77,3.31,4.14,4.14,0,0,0,1.19,3.15A4.57,4.57,0,0,0,215.54,57.92ZM226.94,44l-3.4,17.09h-3.8l.35-1.76a8.75,8.75,0,0,1-9.39,1.09A6.61,6.61,0,0,1,208,57.84a7.88,7.88,0,0,1-1-4,10.45,10.45,0,0,1,1.26-5.13,9.21,9.21,0,0,1,3.46-3.57,9.59,9.59,0,0,1,4.91-1.28q4.1,0,5.83,2.72l.48-2.53Zm-17.1-5.31L198,61.12h-4.45L191.28,44.7l-9,16.42h-4.45l-2.94-22.4h4.12l2.21,17,9.19-17h3.87l2.21,17.18,9.18-17.18Zm-46.57,5.12a6.6,6.6,0,0,1,4.56,1.5,5.48,5.48,0,0,1,1.68,4.29,12,12,0,0,1-.23,2l-1.88,9.47h-4l1.85-9.38a6.26,6.26,0,0,0,.13-1.31q0-3.1-3.42-3.1a5.41,5.41,0,0,0-3.65,1.23,6.37,6.37,0,0,0-1.95,3.7l-1.8,8.86h-4l4.74-23.74h4l-1.66,8.35A8.35,8.35,0,0,1,163.27,43.84Zm-23.12,17.5a16,16,0,0,1-4.14-.52A9.56,9.56,0,0,1,133,59.49l1.67-3.07a8.34,8.34,0,0,0,2.65,1.21,12.17,12.17,0,0,0,3.3.45,6.29,6.29,0,0,0,2.9-.53,1.65,1.65,0,0,0,1-1.52,1.18,1.18,0,0,0-.81-1.12,15.6,15.6,0,0,0-2.58-.73,22.87,22.87,0,0,1-3-.76,4.81,4.81,0,0,1-2-1.31,3.56,3.56,0,0,1-.85-2.51,4.9,4.9,0,0,1,2.23-4.21,10.15,10.15,0,0,1,5.9-1.55,14.44,14.44,0,0,1,3.43.4,9.07,9.07,0,0,1,2.72,1.07L148,48.38a8.07,8.07,0,0,0-2.38-1,11.53,11.53,0,0,0-2.67-.32,5.7,5.7,0,0,0-2.87.58,1.69,1.69,0,0,0-1,1.5,1.23,1.23,0,0,0,.85,1.2,14,14,0,0,0,2.64.75,22.71,22.71,0,0,1,2.94.76,4.77,4.77,0,0,1,2,1.29,3.42,3.42,0,0,1,.84,2.43,4.84,4.84,0,0,1-2.24,4.26A10.57,10.57,0,0,1,140.15,61.34Zm-18.82-3.42a5.58,5.58,0,0,0,3-.82,5.69,5.69,0,0,0,2.1-2.27,7,7,0,0,0,.77-3.31A4.17,4.17,0,0,0,126,48.37a4.6,4.6,0,0,0-3.32-1.14,5.62,5.62,0,0,0-3,.82,5.74,5.74,0,0,0-2.09,2.27,6.91,6.91,0,0,0-.77,3.31A4.13,4.13,0,0,0,118,56.78,4.61,4.61,0,0,0,121.33,57.92ZM132.72,44l-3.39,17.09h-3.81l.35-1.76a8.75,8.75,0,0,1-9.39,1.09,6.65,6.65,0,0,1-2.7-2.61,7.88,7.88,0,0,1-1-4,10.45,10.45,0,0,1,1.26-5.13,9.07,9.07,0,0,1,3.46-3.57,9.56,9.56,0,0,1,4.91-1.28q4.1,0,5.82,2.72l.48-2.53ZM97.42,57.6a10.26,10.26,0,0,0,5.12-1.22A8.39,8.39,0,0,0,105.88,53a9.83,9.83,0,0,0,1.17-4.82,5.53,5.53,0,0,0-1.83-4.4,7.89,7.89,0,0,0-5.31-1.58H94.76L91.69,57.6ZM91.3,38.72h9.06a13.73,13.73,0,0,1,5.82,1.14,8.39,8.39,0,0,1,3.76,3.21,9,9,0,0,1,1.3,4.9,13.43,13.43,0,0,1-1.74,6.91,11.91,11.91,0,0,1-4.92,4.61,15.66,15.66,0,0,1-7.29,1.63H86.82Z"/></clipPath><clipPath id="clip-path-11"><rect class="cls-1" x="-1275.26" y="-2218.88" width="2742" height="8582"/></clipPath><clipPath id="clip-path-12"><path class="cls-2" d="M267.73,544.86a5.68,5.68,0,0,0,3-.82,5.55,5.55,0,0,0,2.1-2.27,7.14,7.14,0,0,0,.75-3.31,4.17,4.17,0,0,0-1.18-3.16,4.65,4.65,0,0,0-3.33-1.13,5.56,5.56,0,0,0-5.1,3.09,7.11,7.11,0,0,0-.76,3.31,4.17,4.17,0,0,0,1.19,3.15A4.61,4.61,0,0,0,267.73,544.86Zm12.7-20.55-4.74,23.75h-3.8l.35-1.76a8.22,8.22,0,0,1-5.54,2,8.07,8.07,0,0,1-3.82-.9,6.64,6.64,0,0,1-2.71-2.6,7.88,7.88,0,0,1-1-4,10.53,10.53,0,0,1,1.25-5.15,9,9,0,0,1,3.44-3.55,9.49,9.49,0,0,1,4.91-1.28,8.46,8.46,0,0,1,3.51.67,5.29,5.29,0,0,1,2.32,2l1.82-9.12Zm-30.57,6.47a6.6,6.6,0,0,1,4.56,1.5,5.41,5.41,0,0,1,1.68,4.26,12.27,12.27,0,0,1-.22,2L254,548.06h-4l1.85-9.38a6.33,6.33,0,0,0,.13-1.31q0-3.11-3.42-3.11a5.43,5.43,0,0,0-3.65,1.24,6.37,6.37,0,0,0-2,3.69l-1.79,8.87h-4L240.55,531h3.81l-.39,1.89A8.45,8.45,0,0,1,249.86,530.78ZM227.42,534A5.36,5.36,0,0,0,222,538h9.79a3.7,3.7,0,0,0-1.16-3A4.64,4.64,0,0,0,227.42,534Zm8.06,4.28a11.54,11.54,0,0,1-.25,2.44H221.66c.06,2.79,1.71,4.19,4.93,4.19a8,8,0,0,0,2.75-.47,6.31,6.31,0,0,0,2.18-1.29l1.66,2.78a8.7,8.7,0,0,1-3.15,1.78,12.67,12.67,0,0,1-3.86.59,10,10,0,0,1-4.46-.93,6.78,6.78,0,0,1-2.93-2.64,7.57,7.57,0,0,1-1-4,10.49,10.49,0,0,1,1.26-5.14,9.06,9.06,0,0,1,3.52-3.56,10,10,0,0,1,5.07-1.28,8,8,0,0,1,5.73,2A7.12,7.12,0,0,1,235.48,538.26Zm-30,10.12a16.59,16.59,0,0,1-5-.74,10.44,10.44,0,0,1-3.72-1.89l1.76-3.26a10.79,10.79,0,0,0,3.35,1.77,12.17,12.17,0,0,0,3.95.66,7.73,7.73,0,0,0,3.92-.85,2.59,2.59,0,0,0,1.46-2.32,1.82,1.82,0,0,0-.6-1.39,4.48,4.48,0,0,0-1.47-.91,25.38,25.38,0,0,0-2.45-.8,31.92,31.92,0,0,1-3.52-1.23,6.2,6.2,0,0,1-2.3-1.78,4.72,4.72,0,0,1-1-3.07,6.16,6.16,0,0,1,1.23-3.81,7.93,7.93,0,0,1,3.44-2.53,13.6,13.6,0,0,1,5.09-.89,16.75,16.75,0,0,1,4.13.49,11.71,11.71,0,0,1,3.36,1.39l-1.63,3.3a10.36,10.36,0,0,0-2.82-1.28,11.77,11.77,0,0,0-3.26-.45,7.49,7.49,0,0,0-4,.91,2.76,2.76,0,0,0-1.45,2.42,1.87,1.87,0,0,0,.61,1.44,4.36,4.36,0,0,0,1.47.91c.57.23,1.42.51,2.53.85a32.12,32.12,0,0,1,3.45,1.18,6.11,6.11,0,0,1,2.29,1.7,4.37,4.37,0,0,1,.94,2.91,6.21,6.21,0,0,1-1.23,3.84,7.86,7.86,0,0,1-3.49,2.53A13.81,13.81,0,0,1,205.43,548.38ZM188,534a5.36,5.36,0,0,0-5.41,4.06h9.79a3.71,3.71,0,0,0-1.17-3A4.61,4.61,0,0,0,188,534Zm8.06,4.28a11.54,11.54,0,0,1-.26,2.44H182.22q.09,4.18,4.92,4.19a8,8,0,0,0,2.76-.47,6.26,6.26,0,0,0,2.17-1.29l1.67,2.78a8.66,8.66,0,0,1-3.16,1.78,12.6,12.6,0,0,1-3.85.59,10.08,10.08,0,0,1-4.47-.93,6.76,6.76,0,0,1-2.92-2.64,7.48,7.48,0,0,1-1-4,10.39,10.39,0,0,1,1.27-5.14,9,9,0,0,1,3.52-3.56,10,10,0,0,1,5.07-1.28,8,8,0,0,1,5.73,2A7.12,7.12,0,0,1,196,538.26Zm-24-5.08a6.05,6.05,0,0,1,2.74-1.86,12.16,12.16,0,0,1,3.85-.54l-.73,3.8a6.27,6.27,0,0,0-1-.09q-4.89,0-5.92,5.15l-1.69,8.42h-4L168.67,531h3.81ZM163.7,531l-3.42,17.09h-3.81l.38-1.89a8.21,8.21,0,0,1-5.79,2.11,6.47,6.47,0,0,1-4.5-1.52,5.46,5.46,0,0,1-1.68-4.27,9.54,9.54,0,0,1,.23-2L147,531h4l-1.89,9.37a6.42,6.42,0,0,0-.13,1.32,3,3,0,0,0,.85,2.3,3.58,3.58,0,0,0,2.54.8,5.38,5.38,0,0,0,3.62-1.23,6.24,6.24,0,0,0,1.92-3.7L159.7,531Zm-29.77,17.31a9.86,9.86,0,0,1-4.43-.94,6.91,6.91,0,0,1-2.93-2.64,7.51,7.51,0,0,1-1-3.94,10,10,0,0,1,1.31-5.12,9.43,9.43,0,0,1,3.63-3.57,10.72,10.72,0,0,1,5.3-1.29,9.3,9.3,0,0,1,4.46,1,7,7,0,0,1,2.9,3l-3.43,1.76a4.32,4.32,0,0,0-4.25-2.37,5.72,5.72,0,0,0-3,.81,5.83,5.83,0,0,0-2.09,2.28,7,7,0,0,0-.77,3.31,4.16,4.16,0,0,0,1.18,3.15,4.65,4.65,0,0,0,3.36,1.14,5.81,5.81,0,0,0,2.66-.6,5.4,5.4,0,0,0,2-1.77l2.94,2a8,8,0,0,1-3.26,2.8A10.35,10.35,0,0,1,133.93,548.28ZM115.65,534a5.36,5.36,0,0,0-5.41,4.06H120a3.7,3.7,0,0,0-1.16-3A4.64,4.64,0,0,0,115.65,534Zm8.06,4.28a11.54,11.54,0,0,1-.25,2.44H109.89c.06,2.79,1.71,4.19,4.93,4.19a8,8,0,0,0,2.75-.47,6.31,6.31,0,0,0,2.18-1.29l1.66,2.78a8.7,8.7,0,0,1-3.15,1.78,12.67,12.67,0,0,1-3.86.59,10,10,0,0,1-4.46-.93,6.78,6.78,0,0,1-2.93-2.64,7.57,7.57,0,0,1-1-4,10.49,10.49,0,0,1,1.26-5.14,9.06,9.06,0,0,1,3.52-3.56,10,10,0,0,1,5.07-1.28,8,8,0,0,1,5.73,2A7.12,7.12,0,0,1,123.71,538.26Zm-30,10.12a16.59,16.59,0,0,1-5-.74A10.44,10.44,0,0,1,85,545.75l1.76-3.26a10.79,10.79,0,0,0,3.35,1.77,12.17,12.17,0,0,0,4,.66,7.73,7.73,0,0,0,3.92-.85,2.59,2.59,0,0,0,1.46-2.32,1.82,1.82,0,0,0-.6-1.39,4.48,4.48,0,0,0-1.47-.91,24.48,24.48,0,0,0-2.45-.8,31.92,31.92,0,0,1-3.52-1.23,6.2,6.2,0,0,1-2.3-1.78,4.72,4.72,0,0,1-1-3.07,6.16,6.16,0,0,1,1.23-3.81,7.93,7.93,0,0,1,3.44-2.53,13.6,13.6,0,0,1,5.09-.89,16.75,16.75,0,0,1,4.13.49,11.71,11.71,0,0,1,3.36,1.39l-1.63,3.3a10.22,10.22,0,0,0-2.82-1.28,11.77,11.77,0,0,0-3.26-.45,7.49,7.49,0,0,0-4,.91,2.76,2.76,0,0,0-1.45,2.42,1.87,1.87,0,0,0,.61,1.44,4.36,4.36,0,0,0,1.47.91c.57.23,1.42.51,2.53.85a32.12,32.12,0,0,1,3.45,1.18,6.11,6.11,0,0,1,2.29,1.7,4.37,4.37,0,0,1,.94,2.91,6.21,6.21,0,0,1-1.23,3.84,7.86,7.86,0,0,1-3.49,2.53A13.81,13.81,0,0,1,93.66,548.38Z"/></clipPath></defs><title>dash_wallet_enclosed</title><g class="cls-8"><g class="cls-9"><rect class="cls-10" x="26.38" y="2.58" width="312.65" height="93.57"/></g></g><g class="cls-13"><g class="cls-14"><rect class="cls-10" x="76.82" y="27.38" width="211.77" height="43.97"/></g></g></svg>