<svg width="101" height="86" viewBox="0 0 101 86" xmlns="http://www.w3.org/2000/svg"><title>private</title><g stroke="#1C75BC" stroke-width="3" fill="none" fill-rule="evenodd"><path d="M92.25 1.474l-82 82.333M33.083 74.64c41 12.168 65.5-25.333 65.5-29.833 0-2.775-7.667-13.167-15.112-19.51" stroke-linecap="round"/><path d="M24.305 69.695C11.085 60.975 1.75 48.975 1.75 44.14c0-4.833 30.404-48.264 73.368-25.465"/><path d="M47.05 59.822c.877.154 1.78.234 2.7.234 8.56 0 15.498-6.938 15.498-15.498" stroke-linecap="round"/><path d="M38.432 55.146c-2.593-2.77-4.18-6.493-4.18-10.587 0-8.56 6.94-15.5 15.498-15.5 4.163 0 7.942 1.642 10.727 4.313"/></g></svg>