<svg width="68" height="99" viewBox="0 0 68 99" xmlns="http://www.w3.org/2000/svg"><title>secure</title><g stroke="#1C75BC" stroke-width="3" fill="none" fill-rule="evenodd"><path d="M8.325 39.06v-12c0-14.058 11.502-25.56 25.56-25.56h.136c13.96 0 25.38 11.42 25.38 25.38v12.18"/><path d="M15.295 39.002V27.277c0-10.22 8.363-18.584 18.584-18.584h.099c10.149 0 18.453 8.304 18.453 18.453v11.856"/><path d="M33.863 96.715c-17.8 0-32.363-14.563-32.363-32.363v-19.01c0-3.566 2.917-6.483 6.482-6.483h51.762c3.565 0 6.482 2.917 6.482 6.482v19.011c0 17.8-14.563 32.363-32.363 32.363z"/><path d="M36.99 67.6c1.972-1.107 3.321-3.125 3.321-5.548 0-3.57-2.886-6.417-6.456-6.417-3.57 0-6.46 2.917-6.46 6.487 0 2.427 1.34 4.365 3.316 5.471l-1.473 10.78h9.625L36.99 67.6z" stroke-linejoin="round"/></g></svg>