<?xml version="1.0" encoding="utf-8"?>
<!-- Generator: Adobe Illustrator 22.0.1, SVG Export Plug-In . SVG Version: 6.00 Build 0)  -->
<svg version="1.1" xmlns="http://www.w3.org/2000/svg" xmlns:xlink="http://www.w3.org/1999/xlink" x="0px" y="0px"
	 viewBox="0 0 283.5 149" style="enable-background:new 0 0 283.5 149;" xml:space="preserve">
<style type="text/css">
	.st0{fill:#0090E4;}
</style>
<g id="Layer_2">
</g>
<g id="Layer_1">
	<g>
		<path class="st0" d="M73,28.2H46.7l-2.2,12.1l23.7,0c11.7,0,15.1,4.2,15,11.3c-0.1,3.6-1.6,9.7-2.3,11.7
			c-1.8,5.3-5.5,11.3-19.3,11.2l-23,0l-2.2,12.2h26.2c9.2,0,13.2-1.1,17.3-3c9.2-4.3,14.7-13.4,16.9-25.2
			C100.1,40.7,96,28.2,73,28.2"/>
		<path class="st0" d="M154.1,86.7l1.8-10.6h22.4c1.8,0,3-1.1,3.3-2.8c0.4-1.8-0.5-2.8-2.3-2.8h-10.7c-8.5,0-12.5-4.9-11-13.4
			c1.5-8.5,7.3-13.4,15.8-13.4h24.3l-1.9,10.6h-21.5c-1.8,0-3,1.1-3.3,2.8c-0.4,1.8,0.5,2.8,2.3,2.8H184c8.5,0,12.5,4.9,11,13.4
			c-1.5,8.5-7.2,13.4-15.7,13.4H154.1z"/>
		<path class="st0" d="M120,86.7c-13.9,0-20.2-7.6-17.7-21.5c2.4-13.9,11.4-21.5,25.3-21.5h24.7l-7.6,43H120z M136,54.3h-6.3
			c-7.6,0-12,3.3-13.4,10.9c-1.4,7.6,1.4,10.9,9,10.9h6.9L136,54.3z"/>
		<path class="st0" d="M228.2,86.7l4.4-25c0.8-4.9-1.2-7-6.1-7h-7l-5.6,32.1h-14.3l10.3-58.5h14.3l-2.7,15.5h10.7
			c12.5,0,17,5.5,14.8,18l-4.4,25H228.2z"/>
		<path class="st0" d="M35.4,51.3c-6.9,0-7.9,4.5-8.5,7.2c-0.9,3.5-1.1,5-1.1,5h26.9c6.9,0,7.9-4.5,8.5-7.2c0.9-3.5,1.1-5,1.1-5
			H35.4z"/>
	</g>
	<g>
		<path class="st0" d="M79.8,111.6h-8l-2.3,3.7h-3.2l10.3-15.9h2.9l4,15.9h-2.9L79.8,111.6z M79.3,109.3l-1.6-7l-4.4,7H79.3z"/>
		<path class="st0" d="M88.2,114.8c-0.9-0.4-1.6-1.1-2.1-1.9c-0.5-0.8-0.7-1.7-0.7-2.8c0-1.3,0.3-2.6,0.9-3.6s1.5-1.9,2.6-2.5
			s2.4-0.9,3.8-0.9c1.2,0,2.3,0.2,3.2,0.7s1.6,1.2,2.1,2.1l-2.4,1.2c-0.6-1.1-1.6-1.7-3-1.7c-0.8,0-1.5,0.2-2.1,0.6
			c-0.6,0.4-1.1,0.9-1.5,1.6s-0.5,1.5-0.5,2.4c0,1,0.3,1.7,0.8,2.2c0.6,0.5,1.4,0.8,2.4,0.8c0.7,0,1.3-0.1,1.9-0.4
			c0.6-0.3,1-0.7,1.4-1.3l2.1,1.4c-0.6,0.8-1.3,1.5-2.3,2c-1,0.5-2.1,0.7-3.2,0.7C90.1,115.5,89.1,115.2,88.2,114.8z"/>
		<path class="st0" d="M101.2,114.8c-0.9-0.4-1.6-1.1-2.1-1.9c-0.5-0.8-0.7-1.7-0.7-2.8c0-1.3,0.3-2.6,0.9-3.6s1.5-1.9,2.6-2.5
			s2.4-0.9,3.8-0.9c1.2,0,2.3,0.2,3.2,0.7s1.6,1.2,2.1,2.1l-2.4,1.2c-0.6-1.1-1.6-1.7-3-1.7c-0.8,0-1.5,0.2-2.1,0.6
			c-0.6,0.4-1.1,0.9-1.5,1.6s-0.5,1.5-0.5,2.4c0,1,0.3,1.7,0.8,2.2c0.6,0.5,1.4,0.8,2.4,0.8c0.7,0,1.3-0.1,1.9-0.4
			c0.6-0.3,1-0.7,1.4-1.3l2.1,1.4c-0.6,0.8-1.3,1.5-2.3,2c-1,0.5-2.1,0.7-3.2,0.7C103.1,115.5,102.1,115.2,101.2,114.8z"/>
		<path class="st0" d="M123.8,110.1h-9.6c0,2,1.2,3,3.5,3c0.7,0,1.3-0.1,2-0.3c0.6-0.2,1.1-0.5,1.5-0.9l1.2,2
			c-0.6,0.6-1.4,1-2.2,1.3c-0.9,0.3-1.8,0.4-2.7,0.4c-1.2,0-2.3-0.2-3.2-0.7s-1.6-1.1-2.1-1.9c-0.5-0.8-0.7-1.7-0.7-2.8
			c0-1.3,0.3-2.6,0.9-3.6c0.6-1.1,1.4-1.9,2.5-2.5c1.1-0.6,2.3-0.9,3.6-0.9c1.7,0,3.1,0.5,4.1,1.4s1.5,2.2,1.5,3.9
			C124,109,123.9,109.5,123.8,110.1z M115.8,106.1c-0.7,0.5-1.1,1.2-1.4,2.1h6.9c0-0.9-0.3-1.6-0.8-2.1c-0.6-0.5-1.3-0.8-2.3-0.8
			C117.3,105.3,116.5,105.6,115.8,106.1z"/>
		<path class="st0" d="M136.8,103.7c0.8,0.4,1.4,1,1.9,1.8c0.5,0.8,0.7,1.7,0.7,2.8c0,1.3-0.3,2.6-0.9,3.6s-1.4,1.9-2.5,2.5
			c-1,0.6-2.2,0.9-3.5,0.9c-1,0-1.8-0.2-2.5-0.5c-0.7-0.3-1.3-0.8-1.7-1.5l-1.2,6.2h-2.8l3.3-16.5h2.7l-0.3,1.3
			c1.1-0.9,2.4-1.4,4-1.4C135.1,103,136,103.3,136.8,103.7z M134.6,112.5c0.6-0.4,1.1-0.9,1.5-1.6c0.4-0.7,0.5-1.5,0.5-2.4
			c0-1-0.3-1.7-0.8-2.2c-0.6-0.5-1.3-0.8-2.4-0.8c-0.8,0-1.5,0.2-2.1,0.6c-0.6,0.4-1.1,0.9-1.5,1.6s-0.5,1.5-0.5,2.4
			c0,1,0.3,1.7,0.8,2.2c0.6,0.5,1.3,0.8,2.4,0.8C133.2,113,133.9,112.8,134.6,112.5z"/>
		<path class="st0" d="M144.9,111.2c0,0.2,0,0.4,0,0.5c0,0.9,0.5,1.4,1.4,1.4c0.6,0,1.1-0.2,1.6-0.5l0.5,2.1
			c-0.8,0.5-1.7,0.7-2.9,0.7c-1,0-1.9-0.3-2.5-0.9c-0.6-0.6-1-1.4-1-2.4c0-0.3,0-0.7,0.1-1l1.2-5.7h-2l0.5-2.3h2l0.5-2.8h2.8
			l-0.6,2.8h3.3l-0.5,2.3H146L144.9,111.2z"/>
		<path class="st0" d="M162.6,110.1H153c0,2,1.2,3,3.5,3c0.7,0,1.3-0.1,2-0.3c0.6-0.2,1.1-0.5,1.5-0.9l1.2,2c-0.6,0.6-1.4,1-2.2,1.3
			c-0.9,0.3-1.8,0.4-2.7,0.4c-1.2,0-2.3-0.2-3.2-0.7c-0.9-0.4-1.6-1.1-2.1-1.9s-0.7-1.7-0.7-2.8c0-1.3,0.3-2.6,0.9-3.6
			c0.6-1.1,1.4-1.9,2.5-2.5c1.1-0.6,2.3-0.9,3.6-0.9c1.7,0,3.1,0.5,4.1,1.4s1.5,2.2,1.5,3.9C162.8,109,162.8,109.5,162.6,110.1z
			 M154.7,106.1c-0.7,0.5-1.1,1.2-1.4,2.1h6.9c0-0.9-0.3-1.6-0.8-2.1c-0.6-0.5-1.3-0.8-2.3-0.8S155.3,105.6,154.7,106.1z"/>
		<path class="st0" d="M179.4,98.5l-3.4,16.9h-2.7l0.3-1.2c-1.1,0.9-2.4,1.4-3.9,1.4c-1,0-1.9-0.2-2.7-0.6c-0.8-0.4-1.5-1-1.9-1.9
			c-0.5-0.8-0.7-1.8-0.7-2.9c0-1.4,0.3-2.6,0.9-3.7c0.6-1.1,1.4-1.9,2.4-2.5c1-0.6,2.2-0.9,3.5-0.9c1,0,1.8,0.2,2.5,0.5
			s1.3,0.8,1.6,1.4l1.3-6.5H179.4z M172.5,112.5c0.6-0.4,1.1-0.9,1.5-1.6c0.4-0.7,0.5-1.5,0.5-2.4c0-1-0.3-1.7-0.8-2.2
			c-0.6-0.5-1.3-0.8-2.4-0.8c-0.8,0-1.5,0.2-2.1,0.6c-0.6,0.4-1.1,0.9-1.5,1.6c-0.4,0.7-0.5,1.5-0.5,2.4c0,1,0.3,1.7,0.8,2.2
			c0.6,0.5,1.3,0.8,2.4,0.8C171.2,113,171.9,112.8,172.5,112.5z"/>
		<path class="st0" d="M203.6,99.4l-3.2,15.9h-2.9l1.3-6.7h-8.2l-1.3,6.7h-3l3.2-15.9h3l-1.3,6.5h8.2l1.3-6.5H203.6z"/>
		<path class="st0" d="M217,110.1h-9.6c0,2,1.2,3,3.5,3c0.7,0,1.3-0.1,2-0.3c0.6-0.2,1.1-0.5,1.5-0.9l1.2,2c-0.6,0.6-1.4,1-2.2,1.3
			c-0.9,0.3-1.8,0.4-2.7,0.4c-1.2,0-2.3-0.2-3.2-0.7c-0.9-0.4-1.6-1.1-2.1-1.9s-0.7-1.7-0.7-2.8c0-1.3,0.3-2.6,0.9-3.6
			c0.6-1.1,1.4-1.9,2.5-2.5c1.1-0.6,2.3-0.9,3.6-0.9c1.7,0,3.1,0.5,4.1,1.4s1.5,2.2,1.5,3.9C217.1,109,217.1,109.5,217,110.1z
			 M209,106.1c-0.7,0.5-1.1,1.2-1.4,2.1h6.9c0-0.9-0.3-1.6-0.8-2.1c-0.6-0.5-1.3-0.8-2.3-0.8S209.6,105.6,209,106.1z"/>
		<path class="st0" d="M225.2,103.4c0.8-0.3,1.7-0.4,2.7-0.4l-0.5,2.7c-0.3,0-0.5-0.1-0.7-0.1c-2.3,0-3.7,1.2-4.2,3.7l-1.2,6h-2.8
			l2.4-12.1h2.7l-0.3,1.6C223.8,104.1,224.5,103.7,225.2,103.4z"/>
		<path class="st0" d="M240.3,110.1h-9.6c0,2,1.2,3,3.5,3c0.7,0,1.3-0.1,2-0.3c0.6-0.2,1.1-0.5,1.5-0.9l1.2,2
			c-0.6,0.6-1.4,1-2.2,1.3c-0.9,0.3-1.8,0.4-2.7,0.4c-1.2,0-2.3-0.2-3.2-0.7c-0.9-0.4-1.6-1.1-2.1-1.9s-0.7-1.7-0.7-2.8
			c0-1.3,0.3-2.6,0.9-3.6c0.6-1.1,1.4-1.9,2.5-2.5c1.1-0.6,2.3-0.9,3.6-0.9c1.7,0,3.1,0.5,4.1,1.4s1.5,2.2,1.5,3.9
			C240.5,109,240.4,109.5,240.3,110.1z M232.3,106.1c-0.7,0.5-1.1,1.2-1.4,2.1h6.9c0-0.9-0.3-1.6-0.8-2.1c-0.6-0.5-1.3-0.8-2.3-0.8
			S233,105.6,232.3,106.1z"/>
	</g>
</g>
</svg>
