<svg id="Layer_1" data-name="Layer 1" xmlns="http://www.w3.org/2000/svg" viewBox="0 0 185.11 89.42"><defs><style>.cls-1{fill:#008de4;}</style></defs><title>dash_privateSend_noText</title><path class="cls-1" d="M53.46,13.28C21.09,13.28,16,35.7,13,49.1l-.12.52c-3.83,17-5.13,24.12-5.15,24.19l-.42,2.34H131.65c32.37,0,37.41-22.43,40.43-35.83l.11-.52c3.83-17,5.14-24.12,5.16-24.19l.42-2.33ZM13,71.64c.48-2.16,1.33-5.86,2.7-11.41l.07-.3c1.89-7.68,4.47-18.2,22.23-18.2h74.07c-.48,2.16-1.33,5.86-2.69,11.41l-.08.3c-1.88,7.68-4.47,18.2-22.23,18.2ZM168.33,38.93l-.12.52c-2.93,13-7.36,32.73-36.56,32.73H102c7.92-4.57,9.91-12.7,11.16-17.8l.08-.29c2.41-9.8,3.2-13.79,3.24-14l.47-2.37H38c-10.29,0-16.33,3.36-20,7.65,3.16-12.62,9.54-28.18,35.5-28.18H173C172.34,20.54,170.91,27.47,168.33,38.93Z"/></svg>