<svg id="Layer_1" data-name="Layer 1" xmlns="http://www.w3.org/2000/svg" viewBox="0 0 515.95 153.44"><defs><style>.cls-1{fill:#979797;}.cls-2{fill:#008de4;}</style></defs><title>dash_privateSend_icon</title><polygon class="cls-1" points="252.86 148.56 250.88 148.28 251.01 147.29 271.15 4.3 273.13 4.58 273 5.57 252.86 148.56"/><path class="cls-2" d="M55.43,49.09H31.48l-2,11.09,21.61,0c10.64,0,13.79,3.87,13.7,10.28a46.75,46.75,0,0,1-2.08,10.64c-1.65,4.8-5,10.27-17.65,10.26h-21l-2,11.1H46c8.43,0,12-1,15.81-2.73,8.42-3.89,13.42-12.2,15.43-23C80.21,60.57,76.49,49.09,55.43,49.09Z"/><path class="cls-2" d="M132.7,75.5c-1.36,7.71,2.33,12.21,10.05,12.21h9.78a1.93,1.93,0,0,1,2.09,2.58,2.83,2.83,0,0,1-3,2.57H131.19l-1.69,9.65h23.1c7.72,0,12.94-4.51,14.31-12.22s-2.33-12.22-10-12.22h-9.78A1.93,1.93,0,0,1,145,75.5a2.84,2.84,0,0,1,3-2.58h19.59l1.77-9.64H147.09C139.38,63.28,134.07,67.78,132.7,75.5Z"/><path class="cls-2" d="M82.18,82.89c-2.25,12.7,3.46,19.61,16.16,19.61h22.51l6.92-39.23H105.26C92.56,63.27,84.36,70.19,82.18,82.89Zm30.8-10-3.46,19.94h-6.34c-6.91,0-9.48-3.06-8.2-10s5.29-10,12.21-10Z"/><path class="cls-2" d="M200.75,63.27H191l2.51-14.18h-13l-9.42,53.41h13l5.14-29.26h6.4c4.51,0,6.33,1.93,5.61,6.43l-4,22.83h13l4-22.83C216.26,68.26,212.16,63.27,200.75,63.27Z"/><path class="cls-2" d="M44.64,74.76c.78-3.23,1-4.54,1-4.54H21.15c-6.27,0-7.17,4.08-7.77,6.55-.77,3.24-1,4.55-1,4.55H36.87C43.15,81.32,44.05,77.23,44.64,74.76Z"/><path class="cls-2" d="M360.65,22.07c-37.73,0-43.6,26.14-47.12,41.75l-.13.6c-4.46,19.81-6,28.11-6,28.19l-.5,2.72H451.76c37.72,0,43.6-26.13,47.11-41.74L499,53c4.46-19.81,6-28.1,6-28.18l.5-2.73Zm-47.16,68c.56-2.51,1.55-6.82,3.14-13.29l.09-.35c2.19-9,5.2-21.21,25.91-21.21h86.3c-.55,2.51-1.54,6.82-3.14,13.29l-.08.35c-2.2,8.95-5.21,21.21-25.91,21.21ZM494.5,52l-.13.6c-3.42,15.19-8.58,38.14-42.61,38.14H417.18c9.23-5.32,11.56-14.79,13-20.74l.08-.34c2.81-11.42,3.74-16.06,3.78-16.26l.55-2.76h-92c-12,0-19,3.92-23.35,8.92,3.68-14.7,11.12-32.84,41.37-32.84H499.94C499.17,30.54,497.51,38.62,494.5,52Z"/><path id="PrivateSend" class="cls-2" d="M314.52,110.21a9.39,9.39,0,0,1,6,1.68,5.72,5.72,0,0,1,2.11,4.73,8.6,8.6,0,0,1-1.23,4.67,7.93,7.93,0,0,1-3.53,3,12.83,12.83,0,0,1-5.39,1h-5.2L306,131.49h-3.95l4.26-21.28ZM312.6,122a6.8,6.8,0,0,0,4.45-1.29,4.53,4.53,0,0,0,1.57-3.72,3,3,0,0,0-1.17-2.57,5.56,5.56,0,0,0-3.36-.87h-4.5L307.92,122Zm16.88-4.65a5.78,5.78,0,0,1,2.6-1.76,11.37,11.37,0,0,1,3.66-.52l-.7,3.62a5.41,5.41,0,0,0-.94-.09q-4.65,0-5.62,4.89l-1.61,8h-3.8l3.22-16.24h3.62Zm9.19-2.1h3.8l-3.22,16.24h-3.8Zm2.77-2.67a2.26,2.26,0,0,1-1.64-.62,2,2,0,0,1-.64-1.51,2.33,2.33,0,0,1,.71-1.73,2.55,2.55,0,0,1,1.87-.7,2.32,2.32,0,0,1,1.64.59,1.9,1.9,0,0,1,.64,1.45,2.46,2.46,0,0,1-.71,1.82A2.55,2.55,0,0,1,341.44,112.58Zm21,2.67-10.18,16.24h-3.92l-3.74-16.24h3.74l2.7,12.07,7.57-12.07Zm17.52,0-3.22,16.24h-3.62l.34-1.67a8.32,8.32,0,0,1-8.93,1,6.24,6.24,0,0,1-2.56-2.48,7.43,7.43,0,0,1-1-3.81,9.91,9.91,0,0,1,1.2-4.88,8.79,8.79,0,0,1,3.29-3.39,9.08,9.08,0,0,1,4.66-1.22c2.6,0,4.44.86,5.54,2.59l.45-2.41Zm-10.82,13.2a5.34,5.34,0,0,0,4.86-2.94,6.58,6.58,0,0,0,.73-3.14,4,4,0,0,0-1.12-3,4.37,4.37,0,0,0-3.16-1.08,5.38,5.38,0,0,0-2.88.78,5.54,5.54,0,0,0-2,2.16,6.7,6.7,0,0,0-.73,3.14,4,4,0,0,0,1.13,3A4.37,4.37,0,0,0,369.15,128.45Zm17.7-2.4a6.34,6.34,0,0,0-.06.69q0,1.83,1.92,1.83a3.63,3.63,0,0,0,2.12-.64l.67,2.8a7.23,7.23,0,0,1-3.92,1,4.78,4.78,0,0,1-3.37-1.16,4.08,4.08,0,0,1-1.28-3.19,6.52,6.52,0,0,1,.12-1.27l1.55-7.66H382l.61-3h2.64l.73-3.71h3.8l-.76,3.71h4.38l-.61,3h-4.38Zm23.75-3.87a11.07,11.07,0,0,1-.24,2.32H397.47q.09,4,4.68,4a7.7,7.7,0,0,0,2.62-.44,6.11,6.11,0,0,0,2.06-1.23l1.59,2.64a8.25,8.25,0,0,1-3,1.69,12,12,0,0,1-3.66.56,9.53,9.53,0,0,1-4.24-.88,6.41,6.41,0,0,1-2.78-2.51,7.16,7.16,0,0,1-1-3.75,9.91,9.91,0,0,1,1.2-4.88,8.6,8.6,0,0,1,3.35-3.39,9.59,9.59,0,0,1,4.82-1.22,7.64,7.64,0,0,1,5.44,1.9A6.78,6.78,0,0,1,410.6,122.18Zm-7.66-4.07a5.1,5.1,0,0,0-5.13,3.86h9.3a3.54,3.54,0,0,0-1.11-2.84A4.42,4.42,0,0,0,402.94,118.11Zm16.58,13.68a15.66,15.66,0,0,1-4.71-.7,9.79,9.79,0,0,1-3.53-1.79l1.67-3.1a10.35,10.35,0,0,0,3.18,1.68,11.55,11.55,0,0,0,3.76.63,7.33,7.33,0,0,0,3.72-.81,2.45,2.45,0,0,0,1.38-2.2,1.74,1.74,0,0,0-.56-1.32,4.27,4.27,0,0,0-1.4-.87c-.56-.22-1.33-.48-2.32-.76a30.3,30.3,0,0,1-3.35-1.17,5.88,5.88,0,0,1-2.19-1.69,4.53,4.53,0,0,1-.91-2.92,5.83,5.83,0,0,1,1.17-3.61,7.5,7.5,0,0,1,3.27-2.41,12.93,12.93,0,0,1,4.83-.85,16,16,0,0,1,3.92.47,11.12,11.12,0,0,1,3.2,1.33l-1.55,3.13a9.65,9.65,0,0,0-2.68-1.22,11.37,11.37,0,0,0-3.1-.42,7.08,7.08,0,0,0-3.75.86,2.62,2.62,0,0,0-1.39,2.3,1.83,1.83,0,0,0,.58,1.37,4.29,4.29,0,0,0,1.4.86c.55.22,1.35.48,2.4.81a28.45,28.45,0,0,1,3.28,1.12,5.88,5.88,0,0,1,2.18,1.61,4.21,4.21,0,0,1,.89,2.77,5.9,5.9,0,0,1-1.17,3.65,7.52,7.52,0,0,1-3.31,2.4A13.2,13.2,0,0,1,419.52,131.79Zm28.56-9.61a11.07,11.07,0,0,1-.25,2.32H434.94q.09,4,4.68,4a7.7,7.7,0,0,0,2.62-.44,6.25,6.25,0,0,0,2.07-1.23l1.58,2.64a8.16,8.16,0,0,1-3,1.69,12,12,0,0,1-3.66.56,9.53,9.53,0,0,1-4.24-.88,6.41,6.41,0,0,1-2.78-2.51,7.16,7.16,0,0,1-1-3.75,9.91,9.91,0,0,1,1.2-4.88,8.6,8.6,0,0,1,3.35-3.39,9.59,9.59,0,0,1,4.82-1.22A7.64,7.64,0,0,1,446,117,6.79,6.79,0,0,1,448.08,122.18Zm-7.67-4.07a5.1,5.1,0,0,0-5.13,3.86h9.3a3.54,3.54,0,0,0-1.11-2.84A4.42,4.42,0,0,0,440.41,118.11Zm21.32-3a6.29,6.29,0,0,1,4.34,1.43,5.15,5.15,0,0,1,1.59,4,12,12,0,0,1-.21,1.95l-1.79,9h-3.8l1.76-8.91a6.46,6.46,0,0,0,.12-1.25c0-2-1.08-3-3.25-3a5.16,5.16,0,0,0-3.47,1.18,6.06,6.06,0,0,0-1.85,3.51l-1.71,8.42h-3.8l3.23-16.24h3.61l-.36,1.8A8,8,0,0,1,461.73,115.07Zm29-6.14-4.49,22.56h-3.62l.33-1.67a7.82,7.82,0,0,1-5.26,1.88,7.68,7.68,0,0,1-3.63-.85,6.32,6.32,0,0,1-2.57-2.48,7.42,7.42,0,0,1-.94-3.81,10,10,0,0,1,1.18-4.9,8.69,8.69,0,0,1,3.27-3.37,9.12,9.12,0,0,1,4.67-1.22,8,8,0,0,1,3.33.64,5,5,0,0,1,2.2,1.88l1.73-8.66Zm-12.06,19.52a5.35,5.35,0,0,0,2.85-.78,5.2,5.2,0,0,0,2-2.16,6.7,6.7,0,0,0,.72-3.14,4,4,0,0,0-1.13-3,4.37,4.37,0,0,0-3.16-1.08,5.37,5.37,0,0,0-4.85,2.94,6.82,6.82,0,0,0-.71,3.14,4,4,0,0,0,1.12,3A4.4,4.4,0,0,0,478.71,128.45Z"/></svg>