<svg id="Layer_1" data-name="Layer 1" xmlns="http://www.w3.org/2000/svg" viewBox="0 0 515.95 153.44"><defs><style>.cls-1{fill:#979797;}.cls-2{fill:#008de4;}.cls-3{fill:none;}</style></defs><title>dash_secureSend_icon</title><polygon class="cls-1" points="252.86 148.56 250.88 148.28 251.01 147.29 271.15 4.3 273.13 4.58 273 5.57 252.86 148.56"/><path class="cls-2" d="M55.43,49.09H31.48l-2,11.09,21.61,0c10.64,0,13.79,3.87,13.7,10.28a46.75,46.75,0,0,1-2.08,10.64c-1.65,4.8-5,10.27-17.65,10.26h-21l-2,11.1H46c8.43,0,12-1,15.81-2.73,8.42-3.89,13.42-12.2,15.43-23C80.21,60.57,76.49,49.09,55.43,49.09Z"/><path class="cls-2" d="M132.7,75.5c-1.36,7.71,2.33,12.21,10.05,12.21h9.78a1.93,1.93,0,0,1,2.09,2.58,2.83,2.83,0,0,1-3,2.57H131.19l-1.69,9.65h23.1c7.72,0,12.94-4.51,14.31-12.22s-2.33-12.22-10-12.22h-9.78A1.93,1.93,0,0,1,145,75.5a2.84,2.84,0,0,1,3-2.58h19.59l1.77-9.64H147.09C139.38,63.28,134.07,67.78,132.7,75.5Z"/><path class="cls-2" d="M82.18,82.89c-2.25,12.7,3.46,19.61,16.16,19.61h22.51l6.92-39.23H105.26C92.56,63.27,84.36,70.19,82.18,82.89Zm30.8-10-3.46,19.94h-6.34c-6.91,0-9.48-3.06-8.2-10s5.29-10,12.21-10Z"/><path class="cls-2" d="M200.75,63.27H191l2.51-14.18h-13l-9.42,53.41h13l5.14-29.26h6.4c4.51,0,6.33,1.93,5.61,6.43l-4,22.83h13l4-22.83C216.26,68.26,212.16,63.27,200.75,63.27Z"/><path class="cls-2" d="M44.64,74.76c.78-3.23,1-4.54,1-4.54H21.15c-6.27,0-7.17,4.08-7.77,6.55-.77,3.24-1,4.55-1,4.55H36.87C43.15,81.32,44.05,77.23,44.64,74.76Z"/><path id="SecureSend" class="cls-2" d="M308.76,131.79a15.66,15.66,0,0,1-4.71-.7,9.79,9.79,0,0,1-3.53-1.79l1.67-3.1a10.24,10.24,0,0,0,3.18,1.68,11.53,11.53,0,0,0,3.75.63,7.37,7.37,0,0,0,3.73-.81,2.45,2.45,0,0,0,1.38-2.2,1.74,1.74,0,0,0-.56-1.32,4.27,4.27,0,0,0-1.4-.87c-.56-.22-1.33-.48-2.32-.76a30.3,30.3,0,0,1-3.35-1.17,5.88,5.88,0,0,1-2.19-1.69,4.47,4.47,0,0,1-.91-2.92,5.83,5.83,0,0,1,1.17-3.61,7.5,7.5,0,0,1,3.27-2.41,12.93,12.93,0,0,1,4.83-.85,16,16,0,0,1,3.92.47,11.12,11.12,0,0,1,3.2,1.33l-1.55,3.13a9.78,9.78,0,0,0-2.68-1.22,11.37,11.37,0,0,0-3.1-.42,7.08,7.08,0,0,0-3.75.86,2.62,2.62,0,0,0-1.39,2.3,1.8,1.8,0,0,0,.58,1.37,4.19,4.19,0,0,0,1.4.86c.55.22,1.35.48,2.4.81a28.45,28.45,0,0,1,3.28,1.12,5.88,5.88,0,0,1,2.18,1.61,4.21,4.21,0,0,1,.89,2.77,5.9,5.9,0,0,1-1.17,3.65,7.52,7.52,0,0,1-3.31,2.4A13.2,13.2,0,0,1,308.76,131.79Zm28.55-9.61a11.07,11.07,0,0,1-.24,2.32H324.18q.09,4,4.68,4a7.7,7.7,0,0,0,2.62-.44,6.11,6.11,0,0,0,2.06-1.23l1.59,2.64a8.25,8.25,0,0,1-3,1.69,12,12,0,0,1-3.66.56,9.53,9.53,0,0,1-4.24-.88,6.41,6.41,0,0,1-2.78-2.51,7.16,7.16,0,0,1-1-3.75,9.91,9.91,0,0,1,1.2-4.88,8.6,8.6,0,0,1,3.35-3.39,9.59,9.59,0,0,1,4.82-1.22,7.64,7.64,0,0,1,5.44,1.9A6.78,6.78,0,0,1,337.31,122.18Zm-7.66-4.07a5.1,5.1,0,0,0-5.13,3.86h9.3a3.54,3.54,0,0,0-1.11-2.84A4.42,4.42,0,0,0,329.65,118.11ZM347,131.7a9.35,9.35,0,0,1-4.21-.9,6.51,6.51,0,0,1-2.78-2.5,7.12,7.12,0,0,1-1-3.74,9.56,9.56,0,0,1,1.24-4.87,8.92,8.92,0,0,1,3.45-3.39,10.16,10.16,0,0,1,5-1.23,8.77,8.77,0,0,1,4.24,1,6.53,6.53,0,0,1,2.76,2.84l-3.26,1.67a4.11,4.11,0,0,0-4-2.25,5.35,5.35,0,0,0-2.87.78,5.47,5.47,0,0,0-2,2.16,6.58,6.58,0,0,0-.73,3.14,4,4,0,0,0,1.12,3,4.43,4.43,0,0,0,3.19,1.08,5.51,5.51,0,0,0,2.53-.57,5.09,5.09,0,0,0,1.91-1.68l2.8,1.88a7.61,7.61,0,0,1-3.1,2.66A9.77,9.77,0,0,1,347,131.7Zm28.28-16.45-3.25,16.24h-3.62l.37-1.8a7.84,7.84,0,0,1-5.51,2,6.15,6.15,0,0,1-4.27-1.44,5.22,5.22,0,0,1-1.59-4.06,9.24,9.24,0,0,1,.21-2l1.79-9h3.8l-1.79,8.91a6.46,6.46,0,0,0-.12,1.25,2.9,2.9,0,0,0,.8,2.19,3.46,3.46,0,0,0,2.42.76,5.12,5.12,0,0,0,3.44-1.17,5.92,5.92,0,0,0,1.82-3.52l1.7-8.42Zm7.92,2.1a5.7,5.7,0,0,1,2.59-1.76,11.44,11.44,0,0,1,3.67-.52l-.7,3.62a5.59,5.59,0,0,0-.94-.09q-4.65,0-5.63,4.89l-1.61,8h-3.8L380,115.25h3.62Zm22.8,4.83a11.07,11.07,0,0,1-.24,2.32H392.89q.09,4,4.68,4a7.7,7.7,0,0,0,2.62-.44,6.11,6.11,0,0,0,2.06-1.23l1.59,2.64a8.25,8.25,0,0,1-3,1.69,12,12,0,0,1-3.66.56,9.53,9.53,0,0,1-4.24-.88,6.41,6.41,0,0,1-2.78-2.51,7.16,7.16,0,0,1-1-3.75,9.91,9.91,0,0,1,1.2-4.88,8.6,8.6,0,0,1,3.35-3.39,9.59,9.59,0,0,1,4.82-1.22A7.64,7.64,0,0,1,404,117,6.78,6.78,0,0,1,406,122.18Zm-7.66-4.07a5.1,5.1,0,0,0-5.13,3.86h9.3a3.54,3.54,0,0,0-1.11-2.84A4.42,4.42,0,0,0,398.36,118.11Zm16.58,13.68a15.66,15.66,0,0,1-4.71-.7,9.79,9.79,0,0,1-3.53-1.79l1.67-3.1a10.35,10.35,0,0,0,3.18,1.68,11.55,11.55,0,0,0,3.76.63,7.33,7.33,0,0,0,3.72-.81,2.45,2.45,0,0,0,1.38-2.2,1.71,1.71,0,0,0-.56-1.32,4.17,4.17,0,0,0-1.4-.87c-.56-.22-1.33-.48-2.32-.76a30.3,30.3,0,0,1-3.35-1.17,5.88,5.88,0,0,1-2.19-1.69,4.53,4.53,0,0,1-.91-2.92,5.83,5.83,0,0,1,1.17-3.61,7.5,7.5,0,0,1,3.27-2.41,12.93,12.93,0,0,1,4.83-.85,16,16,0,0,1,3.92.47,11,11,0,0,1,3.2,1.33l-1.55,3.13a9.65,9.65,0,0,0-2.68-1.22,11.37,11.37,0,0,0-3.1-.42,7.08,7.08,0,0,0-3.75.86,2.62,2.62,0,0,0-1.39,2.3,1.83,1.83,0,0,0,.58,1.37,4.29,4.29,0,0,0,1.4.86c.55.22,1.35.48,2.4.81a28.45,28.45,0,0,1,3.28,1.12,5.88,5.88,0,0,1,2.18,1.61,4.15,4.15,0,0,1,.89,2.77,5.9,5.9,0,0,1-1.17,3.65,7.52,7.52,0,0,1-3.31,2.4A13.2,13.2,0,0,1,414.94,131.79Zm28.56-9.61a11.07,11.07,0,0,1-.25,2.32H430.36q.09,4,4.68,4a7.7,7.7,0,0,0,2.62-.44,6.25,6.25,0,0,0,2.07-1.23l1.58,2.64a8.16,8.16,0,0,1-3,1.69,12,12,0,0,1-3.66.56,9.53,9.53,0,0,1-4.24-.88,6.41,6.41,0,0,1-2.78-2.51,7.16,7.16,0,0,1-1-3.75,9.91,9.91,0,0,1,1.2-4.88,8.6,8.6,0,0,1,3.35-3.39,9.59,9.59,0,0,1,4.82-1.22,7.64,7.64,0,0,1,5.44,1.9A6.79,6.79,0,0,1,443.5,122.18Zm-7.67-4.07A5.1,5.1,0,0,0,430.7,122H440a3.54,3.54,0,0,0-1.11-2.84A4.42,4.42,0,0,0,435.83,118.11Zm21.32-3a6.29,6.29,0,0,1,4.34,1.43,5.15,5.15,0,0,1,1.59,4,12,12,0,0,1-.21,1.95l-1.79,9h-3.8l1.76-8.91a6.46,6.46,0,0,0,.12-1.25c0-2-1.08-3-3.25-3a5.16,5.16,0,0,0-3.47,1.18,6.06,6.06,0,0,0-1.85,3.51l-1.7,8.42h-3.8l3.22-16.24h3.62l-.37,1.8A8,8,0,0,1,457.15,115.07Zm29.05-6.14-4.5,22.56h-3.62l.33-1.67a7.82,7.82,0,0,1-5.26,1.88,7.68,7.68,0,0,1-3.63-.85,6.32,6.32,0,0,1-2.57-2.48,7.42,7.42,0,0,1-.94-3.81,9.9,9.9,0,0,1,1.19-4.9,8.59,8.59,0,0,1,3.26-3.37,9.12,9.12,0,0,1,4.67-1.22,8,8,0,0,1,3.33.64,5,5,0,0,1,2.2,1.88l1.74-8.66Zm-12.07,19.52a5.35,5.35,0,0,0,2.85-.78,5.22,5.22,0,0,0,2-2.16,6.82,6.82,0,0,0,.71-3.14,4,4,0,0,0-1.13-3,4.37,4.37,0,0,0-3.16-1.08,5.37,5.37,0,0,0-4.85,2.94,6.82,6.82,0,0,0-.71,3.14,4,4,0,0,0,1.12,3A4.4,4.4,0,0,0,474.13,128.45Z"/><path class="cls-3" d="M410.22,84.22a23.09,23.09,0,0,1-10.71-3,37.89,37.89,0,0,1-3.81-2L349.16,51l1.9-2.08c.1-.11,2.5-2.72,8.72-8.93l.18-.18C364.77,35,373.72,26,389.64,35.68l18,10.89,19.42-20H360.15c-34,0-39.19,23-42.61,38.14l-.14.6c-3,13.36-4.67,21.44-5.43,25.28H451.26c34,0,39.19-22.95,42.6-38.14l.14-.6c3-13.35,4.67-21.44,5.44-25.28h-25L426.54,76C420.58,82.23,415,84.22,410.22,84.22Z"/><path class="cls-2" d="M478.88,22l7-7.21-2.38-1.52c-.12-.08-3.11-2-10.72-6.39l-.23-.13C466.65,3.33,455.7-3,442.81,10.4L431.53,22H360.15c-37.73,0-43.6,26.13-47.12,41.75l-.13.6c-4.47,19.81-6,28.11-6,28.19l-.49,2.72H451.26c37.72,0,43.6-26.13,47.11-41.75l.14-.6c4.46-19.81,6-28.1,6-28.19L505,22ZM438,22l8.15-8.38c10.39-10.81,18.31-6.22,24.09-2.87l.23.13c3.79,2.19,6.43,3.77,8.13,4.79L472.45,22,468,26.61,423.21,72.83c-8.81,9.16-15.86,7.29-21.6,4.26l-.13-.06a32.48,32.48,0,0,1-3.38-1.79L356.41,50c1.38-1.42,3.53-3.63,6.63-6.73l.19-.19c4.73-4.72,11.2-11.19,24-3.42l21.11,12.8,25.12-25.82Zm56,29.9-.14.6c-3.41,15.19-8.57,38.14-42.6,38.14H312c.76-3.84,2.43-11.92,5.43-25.28l.14-.6c3.42-15.19,8.58-38.14,42.61-38.14H427l-19.42,20-18-10.89C373.72,26,364.77,35,360,39.79l-.18.18c-6.22,6.21-8.62,8.82-8.72,8.93L349.16,51,395.7,79.19a37.89,37.89,0,0,0,3.81,2,23.09,23.09,0,0,0,10.71,3c4.82,0,10.36-2,16.32-8.19l47.87-49.42h25C498.67,30.45,497,38.54,494,51.89Z"/></svg>