<svg id="Layer_1" data-name="Layer 1" xmlns="http://www.w3.org/2000/svg" viewBox="0 0 185.11 89.42"><defs><style>.cls-1{fill:none;}.cls-2{fill:#008de4;}</style></defs><title>dash_secureSendIcon_noText</title><path class="cls-1" d="M96.82,73.51a19.92,19.92,0,0,1-9.24-2.6,33.66,33.66,0,0,1-3.29-1.74L44.13,44.83,45.77,43c.09-.09,2.16-2.35,7.52-7.7l.16-.16C57.6,31,65.33,23.3,79.06,31.62L94.57,41,111.33,23.8H53.61c-29.36,0-33.81,19.8-36.76,32.91l-.12.52C14.14,68.75,12.7,75.72,12,79H132.23c29.36,0,33.82-19.81,36.77-32.91l.11-.52c2.6-11.52,4-18.5,4.69-21.81H152.21L110.9,66.44C105.76,71.79,101,73.51,96.82,73.51Z"/><path class="cls-2" d="M156.07,19.81l6-6.22L160,12.27c-.11-.06-2.69-1.71-9.25-5.51l-.2-.11c-5.08-2.94-14.53-8.41-25.65,3.16l-9.73,10H53.61C21.06,19.81,16,42.36,13,55.84l-.12.51C9,73.45,7.67,80.61,7.66,80.68L7.23,83h125c32.55,0,37.63-22.55,40.66-36l.11-.51c3.85-17.1,5.17-24.26,5.18-24.33l.43-2.35Zm-35.3,0,7-7.23c9-9.33,15.79-5.37,20.78-2.48l.2.11c3.27,1.9,5.55,3.26,7,4.14l-5.28,5.46-3.86,4L108,63.68c-7.6,7.9-13.69,6.29-18.64,3.68l-.11-.06a29.35,29.35,0,0,1-2.92-1.54L50.39,44c1.19-1.23,3-3.14,5.72-5.81l.16-.16c4.08-4.08,9.66-9.66,20.73-3l18.22,11L116.89,23.8Zm48.34,25.8-.11.52C166.05,59.23,161.59,79,132.23,79H12c.66-3.32,2.1-10.29,4.69-21.81l.12-.52C19.8,43.6,24.25,23.8,53.61,23.8h57.72L94.57,41l-15.51-9.4C65.33,23.3,57.6,31,53.45,35.17l-.16.16c-5.36,5.35-7.43,7.61-7.52,7.7l-1.64,1.8L84.29,69.17a33.66,33.66,0,0,0,3.29,1.74,19.92,19.92,0,0,0,9.24,2.6c4.16,0,8.94-1.72,14.08-7.07L152.21,23.8H173.8C173.14,27.11,171.71,34.09,169.11,45.61Z"/></svg>