<svg id="Layer_1" data-name="Layer 1" xmlns="http://www.w3.org/2000/svg" xmlns:xlink="http://www.w3.org/1999/xlink" viewBox="0 0 365.41 98.72"><defs><style>.cls-1,.cls-2{fill:none;}.cls-2{clip-rule:evenodd;}.cls-3{clip-path:url(#clip-path);}.cls-4{clip-path:url(#clip-path-2);}.cls-5{clip-path:url(#clip-path-3);}.cls-6{clip-path:url(#clip-path-4);}.cls-7{clip-path:url(#clip-path-5);}.cls-8{clip-path:url(#clip-path-6);}.cls-9{clip-path:url(#clip-path-7);}.cls-10{clip-path:url(#clip-path-8);}.cls-11{fill:#008de4;}.cls-12{clip-path:url(#clip-path-9);}.cls-13{clip-path:url(#clip-path-10);}.cls-14{clip-path:url(#clip-path-11);}.cls-15{clip-path:url(#clip-path-12);}</style><clipPath id="clip-path"><path class="cls-1" d="M95.17,156c-24.12,0-36.81,8.87-43.44,25-1.69,4.11-2.52,7-4.36,14.5-2.17,8.85-3.88,16.07-5.16,21.78-.36,1.62-.67,3-.93,4.2l229,.05c24.12,0,36.82-8.87,43.45-25,1.68-4.11,2.52-7,4.35-14.5,2.17-8.85,3.88-16.07,5.16-21.78.37-1.62.67-3,.93-4.2Zm0-4,233.86.05-.47,2.39c-.06.27-.17.8-.34,1.63q-.44,2-1.11,5c-1.29,5.74-3,13-5.19,21.86-1.88,7.65-2.75,10.71-4.53,15.07-7.24,17.64-21.37,27.52-47.15,27.52l-233.86-.05.48-2.39c0-.27.16-.8.33-1.63.3-1.36.66-3,1.12-5,1.29-5.75,3-13,5.18-21.86,1.88-7.65,2.75-10.71,4.54-15.07C55.26,161.92,69.4,152,95.17,152Z"/></clipPath><clipPath id="clip-path-2"><path class="cls-2" d="M274,186.51a5.34,5.34,0,0,0-5.4,4.06h9.79a3.71,3.71,0,0,0-1.17-3A4.62,4.62,0,0,0,274,186.51Zm8.07,4.28a11.54,11.54,0,0,1-.26,2.44H268.25q.11,4.19,4.93,4.19a8,8,0,0,0,2.75-.47,6.37,6.37,0,0,0,2.18-1.29l1.66,2.78a8.54,8.54,0,0,1-3.15,1.78,12.6,12.6,0,0,1-3.85.59,10.08,10.08,0,0,1-4.47-.93,6.84,6.84,0,0,1-2.93-2.64,7.57,7.57,0,0,1-1-4,10.49,10.49,0,0,1,1.26-5.14,9.13,9.13,0,0,1,3.52-3.56,10.07,10.07,0,0,1,5.08-1.28,8,8,0,0,1,5.72,2A7.12,7.12,0,0,1,282.08,190.79Zm-30.89,6.6a5.74,5.74,0,0,0,3-.82,5.6,5.6,0,0,0,2.09-2.27A7.14,7.14,0,0,0,257,191a4.17,4.17,0,0,0-1.18-3.16,4.65,4.65,0,0,0-3.33-1.13,5.73,5.73,0,0,0-3,.81,5.62,5.62,0,0,0-2.09,2.28,7.11,7.11,0,0,0-.75,3.31,4.16,4.16,0,0,0,1.18,3.15A4.61,4.61,0,0,0,251.19,197.39Zm12.7-20.55-4.73,23.75h-3.81l.35-1.76a8.22,8.22,0,0,1-5.54,2,8.09,8.09,0,0,1-3.82-.9,6.56,6.56,0,0,1-2.7-2.6,7.91,7.91,0,0,1-1-4,10.53,10.53,0,0,1,1.25-5.15,9,9,0,0,1,3.44-3.55,9.49,9.49,0,0,1,4.91-1.28,8.42,8.42,0,0,1,3.51.67,5.29,5.29,0,0,1,2.32,2l1.82-9.12Zm-33.13,20.55a5.61,5.61,0,0,0,5.12-3.09,7,7,0,0,0,.77-3.31,4.17,4.17,0,0,0-1.18-3.16,4.65,4.65,0,0,0-3.33-1.13,5.56,5.56,0,0,0-5.12,3.09,7,7,0,0,0-.77,3.31,4.2,4.2,0,0,0,1.18,3.15A4.61,4.61,0,0,0,230.76,197.39Zm-.25,3.42a9.7,9.7,0,0,1-4.37-.94,7,7,0,0,1-2.9-2.64,7.53,7.53,0,0,1-1-3.94,10.17,10.17,0,0,1,1.29-5.12,9.34,9.34,0,0,1,3.62-3.57,10.59,10.59,0,0,1,5.23-1.29,9.82,9.82,0,0,1,4.39.92,6.83,6.83,0,0,1,2.91,2.63,7.47,7.47,0,0,1,1,3.93,10,10,0,0,1-1.31,5.12,9.48,9.48,0,0,1-3.63,3.59A10.49,10.49,0,0,1,230.51,200.81Zm-9.39-22.62-4.48,22.4h-3.42L204,184.91l-3.13,15.68h-4.13l4.48-22.4h3.42l9.22,15.68,3.1-15.68Zm-30.86,7.52a6.05,6.05,0,0,1,2.74-1.86,12.23,12.23,0,0,1,3.86-.54l-.74,3.8a6.06,6.06,0,0,0-1-.09c-3.27,0-5.24,1.71-5.92,5.15l-1.7,8.42h-4l3.39-17.09h3.81Zm-16.49.8a5.34,5.34,0,0,0-5.4,4.06h9.79a3.71,3.71,0,0,0-1.17-3A4.62,4.62,0,0,0,173.77,186.51Zm8.07,4.28a11.54,11.54,0,0,1-.26,2.44H168q.11,4.19,4.93,4.19a8,8,0,0,0,2.75-.47,6.37,6.37,0,0,0,2.18-1.29l1.66,2.78a8.54,8.54,0,0,1-3.15,1.78,12.6,12.6,0,0,1-3.85.59,10.08,10.08,0,0,1-4.47-.93,6.84,6.84,0,0,1-2.93-2.64,7.57,7.57,0,0,1-1-4,10.49,10.49,0,0,1,1.26-5.14,9.13,9.13,0,0,1,3.52-3.56,10.07,10.07,0,0,1,5.08-1.28,8,8,0,0,1,5.72,2A7.12,7.12,0,0,1,181.84,190.79Zm-25,4.07a5.45,5.45,0,0,0-.07.73c0,1.28.67,1.92,2,1.92a3.89,3.89,0,0,0,2.24-.67l.7,2.95a7.66,7.66,0,0,1-4.13,1,5.1,5.1,0,0,1-3.55-1.22,4.32,4.32,0,0,1-1.34-3.36,6.48,6.48,0,0,1,.13-1.34l1.63-8.06h-2.79l.64-3.2h2.79l.77-3.91h4l-.8,3.91h4.6l-.64,3.2h-4.6Zm-16.05,5.95a16,16,0,0,1-4.14-.53,9.13,9.13,0,0,1-3.06-1.33l1.67-3.07a8.35,8.35,0,0,0,2.65,1.22,12.17,12.17,0,0,0,3.3.45,6.29,6.29,0,0,0,2.9-.53,1.65,1.65,0,0,0,1-1.52,1.17,1.17,0,0,0-.81-1.12,15.41,15.41,0,0,0-2.58-.74,21.52,21.52,0,0,1-3-.75,4.91,4.91,0,0,1-2-1.31,3.58,3.58,0,0,1-.85-2.51,4.87,4.87,0,0,1,2.23-4.21,10.07,10.07,0,0,1,5.9-1.55,14.44,14.44,0,0,1,3.43.4,8.82,8.82,0,0,1,2.72,1.07l-1.48,3.07a7.57,7.57,0,0,0-2.38-1,11,11,0,0,0-2.67-.32,5.82,5.82,0,0,0-2.87.57,1.72,1.72,0,0,0-1,1.51,1.25,1.25,0,0,0,.85,1.2,15.7,15.7,0,0,0,2.64.75,21.34,21.34,0,0,1,2.94.75,4.79,4.79,0,0,1,2,1.3,3.4,3.4,0,0,1,.84,2.43,4.86,4.86,0,0,1-2.24,4.26A10.57,10.57,0,0,1,140.79,200.81ZM122,197.39a5.64,5.64,0,0,0,5.12-3.09,7,7,0,0,0,.77-3.31,4.18,4.18,0,0,0-1.19-3.16,4.64,4.64,0,0,0-3.32-1.13,5.7,5.7,0,0,0-3,.81,5.77,5.77,0,0,0-2.09,2.28,6.88,6.88,0,0,0-.77,3.31,4.16,4.16,0,0,0,1.18,3.15A4.61,4.61,0,0,0,122,197.39Zm11.39-13.89L130,200.59h-3.81l.35-1.76a8.72,8.72,0,0,1-9.39,1.08,6.56,6.56,0,0,1-2.7-2.6,7.91,7.91,0,0,1-1-4,10.49,10.49,0,0,1,1.26-5.14,9.11,9.11,0,0,1,3.46-3.56,9.47,9.47,0,0,1,4.91-1.28c2.73,0,4.67.9,5.82,2.72l.48-2.53Zm-21-5.31-4.48,22.4h-3.94l2.91-14.69L97.26,198H95.4l-5.12-12.42-3,15h-4l4.48-22.4h3.39l5.92,14.91,11.61-14.91Z"/></clipPath><clipPath id="clip-path-3"><path class="cls-1" d="M90.17-314.94c-24.12,0-36.81,8.87-43.44,25-1.69,4.11-2.52,7-4.36,14.5-2.17,8.85-3.88,16.07-5.16,21.78-.36,1.62-.67,3-.93,4.2l239,0c24.12,0,36.82-8.87,43.45-25,1.68-4.11,2.52-7,4.35-14.5,2.17-8.85,3.88-16.07,5.16-21.78.37-1.62.67-3,.93-4.2Zm0-4,243.86.05-.47,2.39c-.06.27-.17.8-.34,1.63q-.44,2-1.11,5.05c-1.29,5.74-3,13-5.19,21.87-1.88,7.64-2.75,10.7-4.53,15.06-7.24,17.64-21.38,27.52-47.15,27.52l-243.86,0,.48-2.39c.05-.27.16-.8.33-1.63.3-1.36.66-3,1.12-5.05,1.29-5.75,3-13,5.18-21.86,1.88-7.65,2.75-10.71,4.54-15.07C50.26-309.06,64.4-318.94,90.17-318.94Z"/></clipPath><clipPath id="clip-path-4"><path class="cls-2" d="M269.83-273.64a5.59,5.59,0,0,0,3-.82,5.55,5.55,0,0,0,2.1-2.27,7.11,7.11,0,0,0,.75-3.31,4.13,4.13,0,0,0-1.18-3.15,4.61,4.61,0,0,0-3.33-1.14,5.65,5.65,0,0,0-3,.82,5.6,5.6,0,0,0-2.09,2.27,7.11,7.11,0,0,0-.76,3.31,4.17,4.17,0,0,0,1.19,3.15A4.61,4.61,0,0,0,269.83-273.64Zm12.7-20.55-4.74,23.75H274l.35-1.76a8.22,8.22,0,0,1-5.54,2,8.18,8.18,0,0,1-3.82-.89,6.73,6.73,0,0,1-2.71-2.61,7.88,7.88,0,0,1-1-4,10.53,10.53,0,0,1,1.25-5.15,9.1,9.1,0,0,1,3.44-3.55,9.49,9.49,0,0,1,4.91-1.28,8.46,8.46,0,0,1,3.51.67,5.29,5.29,0,0,1,2.32,2l1.82-9.12ZM252-287.72a6.6,6.6,0,0,1,4.56,1.5A5.41,5.41,0,0,1,258.2-282a12.47,12.47,0,0,1-.22,2l-1.89,9.47h-4l1.86-9.38a7,7,0,0,0,.12-1.31q0-3.11-3.42-3.1A5.43,5.43,0,0,0,247-283a6.37,6.37,0,0,0-1.95,3.69l-1.79,8.87h-4l3.39-17.09h3.81l-.39,1.89A8.45,8.45,0,0,1,252-287.72Zm-22.44,3.2a5.48,5.48,0,0,0-3.44,1.09,5.5,5.5,0,0,0-2,3h9.79a3.7,3.7,0,0,0-1.16-3A4.69,4.69,0,0,0,229.52-284.52Zm8.06,4.29a11.52,11.52,0,0,1-.25,2.43H223.76c.06,2.79,1.71,4.19,4.93,4.19a8,8,0,0,0,2.75-.46,6.48,6.48,0,0,0,2.18-1.3l1.66,2.78a8.56,8.56,0,0,1-3.15,1.78,12.67,12.67,0,0,1-3.86.59,10,10,0,0,1-4.46-.93,6.66,6.66,0,0,1-2.93-2.64,7.55,7.55,0,0,1-1-3.95,10.43,10.43,0,0,1,1.26-5.13,9,9,0,0,1,3.52-3.57,10,10,0,0,1,5.07-1.28,8,8,0,0,1,5.73,2A7.13,7.13,0,0,1,237.58-280.23Zm-30.05,10.11a16.59,16.59,0,0,1-5-.74,10.44,10.44,0,0,1-3.72-1.89l1.76-3.26a11,11,0,0,0,3.35,1.78,12.43,12.43,0,0,0,3.95.65,7.73,7.73,0,0,0,3.92-.85,2.58,2.58,0,0,0,1.46-2.32,1.84,1.84,0,0,0-.6-1.39,4.48,4.48,0,0,0-1.47-.91c-.58-.23-1.4-.5-2.45-.8a31.92,31.92,0,0,1-3.52-1.23,6.2,6.2,0,0,1-2.3-1.78,4.72,4.72,0,0,1-1-3.07,6.16,6.16,0,0,1,1.23-3.81,7.93,7.93,0,0,1,3.44-2.53,13.6,13.6,0,0,1,5.09-.89,16.75,16.75,0,0,1,4.13.49,11.44,11.44,0,0,1,3.36,1.4L217.61-288a10.22,10.22,0,0,0-2.82-1.28,11.77,11.77,0,0,0-3.26-.45,7.39,7.39,0,0,0-4,.92,2.73,2.73,0,0,0-1.45,2.41,1.87,1.87,0,0,0,.61,1.44,4.21,4.21,0,0,0,1.47.91c.57.23,1.42.51,2.53.85a29.85,29.85,0,0,1,3.45,1.19,6.08,6.08,0,0,1,2.29,1.69,4.37,4.37,0,0,1,.94,2.91,6.17,6.17,0,0,1-1.23,3.84,7.86,7.86,0,0,1-3.49,2.53A13.81,13.81,0,0,1,207.53-270.12Zm-15.41-6.05a7.22,7.22,0,0,0-.06.74c0,1.28.67,1.92,2,1.92a3.9,3.9,0,0,0,2.24-.68l.7,2.95a7.66,7.66,0,0,1-4.13,1,5.1,5.1,0,0,1-3.55-1.21,4.28,4.28,0,0,1-1.34-3.36,7.37,7.37,0,0,1,.12-1.35l1.64-8.06H187l.64-3.2h2.79l.76-3.91h4l-.8,3.91H199l-.64,3.2h-4.61Zm-14.6-11.55a6.6,6.6,0,0,1,4.56,1.5,5.41,5.41,0,0,1,1.68,4.26,12.47,12.47,0,0,1-.22,2l-1.89,9.47h-4l1.86-9.38a7,7,0,0,0,.12-1.31q0-3.11-3.42-3.1a5.43,5.43,0,0,0-3.65,1.23,6.37,6.37,0,0,0-1.95,3.69l-1.79,8.87h-4l3.39-17.09H172l-.39,1.89A8.45,8.45,0,0,1,177.52-287.72Zm-25.7,14.08a5.58,5.58,0,0,0,3-.82,5.69,5.69,0,0,0,2.1-2.27,7,7,0,0,0,.77-3.31,4.14,4.14,0,0,0-1.19-3.15,4.61,4.61,0,0,0-3.33-1.14,5.58,5.58,0,0,0-3,.82,5.76,5.76,0,0,0-2.1,2.27,7,7,0,0,0-.76,3.31,4.16,4.16,0,0,0,1.18,3.15A4.61,4.61,0,0,0,151.82-273.64Zm11.39-13.89-3.39,17.09H156l.35-1.76a8.1,8.1,0,0,1-5.57,2,8.21,8.21,0,0,1-3.82-.89,6.65,6.65,0,0,1-2.7-2.61,7.79,7.79,0,0,1-1-4,10.33,10.33,0,0,1,1.27-5.13,9.12,9.12,0,0,1,3.45-3.57,9.5,9.5,0,0,1,4.92-1.28c2.73,0,4.67.9,5.82,2.72l.48-2.53ZM136-276.17a7.22,7.22,0,0,0-.06.74q0,1.92,2,1.92a3.9,3.9,0,0,0,2.24-.68l.71,2.95a7.69,7.69,0,0,1-4.13,1,5.08,5.08,0,0,1-3.55-1.21,4.29,4.29,0,0,1-1.35-3.36,6.58,6.58,0,0,1,.13-1.35l1.63-8.06h-2.78l.64-3.2h2.78l.77-3.91h4l-.8,3.91h4.61l-.64,3.2H137.6Zm-16,5.95a15.68,15.68,0,0,1-4.15-.53,9.19,9.19,0,0,1-3-1.32l1.66-3.08a8.19,8.19,0,0,0,2.66,1.22,12,12,0,0,0,3.29.45,6.29,6.29,0,0,0,2.9-.53,1.66,1.66,0,0,0,1-1.52,1.18,1.18,0,0,0-.82-1.12,15.8,15.8,0,0,0-2.58-.74,21.9,21.9,0,0,1-3-.75,4.72,4.72,0,0,1-2-1.31A3.53,3.53,0,0,1,115-282a4.87,4.87,0,0,1,2.22-4.21,10.16,10.16,0,0,1,5.91-1.55,14.42,14.42,0,0,1,3.42.4,8.72,8.72,0,0,1,2.72,1.07l-1.47,3.07a7.73,7.73,0,0,0-2.39-1,11.47,11.47,0,0,0-2.67-.32,5.64,5.64,0,0,0-2.86.58,1.71,1.71,0,0,0-1,1.5,1.25,1.25,0,0,0,.85,1.2,14.46,14.46,0,0,0,2.64.75,24.19,24.19,0,0,1,2.94.75,4.89,4.89,0,0,1,2,1.3,3.46,3.46,0,0,1,.83,2.43,4.84,4.84,0,0,1-2.24,4.26A10.53,10.53,0,0,1,120-270.22Zm-14.8-17.5a6.6,6.6,0,0,1,4.56,1.5A5.41,5.41,0,0,1,111.4-282a12.47,12.47,0,0,1-.22,2l-1.89,9.47h-4l1.86-9.38a7,7,0,0,0,.13-1.31q0-3.11-3.43-3.1A5.43,5.43,0,0,0,100.2-283a6.37,6.37,0,0,0-2,3.69l-1.79,8.87h-4l3.39-17.09h3.81l-.38,1.89A8.42,8.42,0,0,1,105.16-287.72Zm-17.8-5.12h4.16L87-270.44H82.88Z"/></clipPath><clipPath id="clip-path-5"><path class="cls-1" d="M95.17-143.47c-24.12,0-36.81,8.88-43.44,25-1.69,4.11-2.52,7.05-4.36,14.51-2.17,8.84-3.88,16.06-5.16,21.78-.36,1.61-.67,3-.93,4.19l229,0c24.12,0,36.82-8.87,43.45-25,1.68-4.11,2.52-7,4.35-14.5,2.17-8.85,3.88-16.07,5.16-21.78.37-1.61.67-3,.93-4.19Zm0-4,233.86.06-.47,2.39c-.06.26-.17.8-.34,1.62q-.44,2-1.11,5.06c-1.29,5.74-3,13-5.19,21.86-1.88,7.65-2.75,10.71-4.53,15.06C310.15-83.78,296-73.9,270.24-73.9l-233.86,0,.48-2.39q.07-.39.33-1.62c.3-1.37.66-3.05,1.12-5.06,1.29-5.74,3-13,5.18-21.86,1.88-7.65,2.75-10.71,4.54-15.06C55.26-137.59,69.4-147.47,95.17-147.47Z"/></clipPath><clipPath id="clip-path-6"><path class="cls-1" d="M95.17-470.41c-24.12,0-36.81,8.87-43.44,25-1.69,4.11-2.52,7.05-4.36,14.5-2.17,8.85-3.88,16.07-5.16,21.79-.36,1.61-.67,3-.93,4.19l229,.05c24.12,0,36.82-8.87,43.45-25,1.68-4.11,2.52-7.05,4.35-14.5,2.17-8.85,3.88-16.07,5.16-21.78.37-1.61.67-3,.93-4.2Zm0-4,233.86.05-.47,2.39c-.06.27-.17.81-.34,1.63q-.44,2-1.11,5c-1.29,5.75-3,13-5.19,21.87-1.88,7.64-2.75,10.7-4.53,15.06-7.24,17.64-21.37,27.52-47.15,27.52l-233.86-.05.48-2.39c0-.27.16-.8.33-1.62.3-1.37.66-3.05,1.12-5.06,1.29-5.74,3-13,5.18-21.86,1.88-7.65,2.75-10.71,4.54-15.07C55.26-464.53,69.4-474.41,95.17-474.41Z"/></clipPath><clipPath id="clip-path-7"><path class="cls-1" d="M95.17,16.58c-24.12,0-36.81,8.87-43.44,25-1.69,4.11-2.52,7-4.36,14.5C45.2,65,43.49,72.18,42.21,77.9c-.36,1.61-.67,3-.93,4.19l229,.06c24.12,0,36.82-8.88,43.45-25,1.68-4.11,2.52-7,4.35-14.51,2.17-8.84,3.88-16.07,5.16-21.78.37-1.61.67-3,.93-4.19Zm0-4L329,12.63,328.56,15c-.06.26-.17.8-.34,1.62-.29,1.37-.66,3.05-1.11,5.06-1.3,5.74-3,13-5.19,21.86-1.88,7.65-2.75,10.71-4.53,15.06C310.15,76.27,296,86.15,270.24,86.15L36.38,86.09l.48-2.39q.07-.39.33-1.62c.29-1.37.66-3,1.12-5.06,1.29-5.74,3-13,5.18-21.86C45.37,47.51,46.24,44.45,48,40.1,55.26,22.46,69.4,12.58,95.17,12.58Z"/></clipPath><clipPath id="clip-path-8"><rect class="cls-1" x="-2206.11" y="-2219.85" width="2742" height="8582"/></clipPath><clipPath id="clip-path-9"><path class="cls-2" d="M269.33-101.69a5.73,5.73,0,0,0,3-.81,5.69,5.69,0,0,0,2.09-2.28,7,7,0,0,0,.76-3.31,4.17,4.17,0,0,0-1.19-3.15,4.61,4.61,0,0,0-3.33-1.14,5.7,5.7,0,0,0-3,.82,5.55,5.55,0,0,0-2.1,2.27,7.14,7.14,0,0,0-.75,3.31,4.17,4.17,0,0,0,1.18,3.16A4.65,4.65,0,0,0,269.33-101.69ZM282-122.23,277.3-98.49h-3.81l.35-1.76a8.2,8.2,0,0,1-5.53,2,8.11,8.11,0,0,1-3.83-.9,6.65,6.65,0,0,1-2.7-2.61,7.87,7.87,0,0,1-1-4,10.59,10.59,0,0,1,1.24-5.16,9.17,9.17,0,0,1,3.44-3.55,9.63,9.63,0,0,1,4.92-1.28,8.57,8.57,0,0,1,3.5.67,5.2,5.2,0,0,1,2.32,2l1.82-9.12Zm-30.56,6.46a6.55,6.55,0,0,1,4.56,1.51,5.41,5.41,0,0,1,1.68,4.25,12.57,12.57,0,0,1-.23,2.05l-1.89,9.47h-4l1.86-9.37a7.2,7.2,0,0,0,.13-1.32q0-3.1-3.43-3.1a5.4,5.4,0,0,0-3.64,1.23,6.38,6.38,0,0,0-2,3.7l-1.79,8.86h-4l3.39-17.09H246l-.38,1.89A8.43,8.43,0,0,1,251.47-115.77ZM229-112.57a5.48,5.48,0,0,0-3.44,1.09,5.51,5.51,0,0,0-2,3h9.79a3.75,3.75,0,0,0-1.17-3A4.67,4.67,0,0,0,229-112.57Zm8.07,4.29a11.52,11.52,0,0,1-.26,2.43H223.26c.07,2.8,1.71,4.19,4.93,4.19a8,8,0,0,0,2.75-.46,6.23,6.23,0,0,0,2.18-1.3l1.66,2.79a8.38,8.38,0,0,1-3.15,1.77,12.31,12.31,0,0,1-3.85.6,10.08,10.08,0,0,1-4.47-.93,6.84,6.84,0,0,1-2.93-2.64,7.57,7.57,0,0,1-1-4,10.46,10.46,0,0,1,1.26-5.14,9.09,9.09,0,0,1,3.52-3.57,10.17,10.17,0,0,1,5.08-1.28,8.07,8.07,0,0,1,5.72,2A7.13,7.13,0,0,1,237.09-108.28ZM207-98.17a16.63,16.63,0,0,1-5-.73,10.46,10.46,0,0,1-3.71-1.89l1.76-3.27a11,11,0,0,0,3.34,1.78,12.17,12.17,0,0,0,3.95.66,7.81,7.81,0,0,0,3.92-.85,2.6,2.6,0,0,0,1.46-2.32,1.84,1.84,0,0,0-.59-1.39,4.72,4.72,0,0,0-1.47-.92c-.59-.23-1.41-.5-2.45-.8a27.65,27.65,0,0,1-3.52-1.23,6.12,6.12,0,0,1-2.31-1.77,4.75,4.75,0,0,1-1-3.08,6.06,6.06,0,0,1,1.24-3.8,7.79,7.79,0,0,1,3.44-2.53,13.35,13.35,0,0,1,5.08-.9,16.75,16.75,0,0,1,4.13.5,11.43,11.43,0,0,1,3.36,1.39l-1.63,3.3a9.55,9.55,0,0,0-2.82-1.28,11.72,11.72,0,0,0-3.26-.45,7.38,7.38,0,0,0-3.95.91,2.76,2.76,0,0,0-1.46,2.42,1.9,1.9,0,0,0,.61,1.44,4.74,4.74,0,0,0,1.47.91c.58.22,1.42.5,2.53.85a30.3,30.3,0,0,1,3.46,1.18,6,6,0,0,1,2.28,1.7,4.34,4.34,0,0,1,.95,2.91,6.21,6.21,0,0,1-1.23,3.84,8,8,0,0,1-3.49,2.53A14.11,14.11,0,0,1,207-98.17Zm-17.45-14.4a5.48,5.48,0,0,0-3.44,1.09,5.58,5.58,0,0,0-2,3H194a3.71,3.71,0,0,0-1.16-3A4.69,4.69,0,0,0,189.58-112.57Zm8.06,4.29a11.52,11.52,0,0,1-.25,2.43H183.82c.06,2.8,1.71,4.19,4.93,4.19a8,8,0,0,0,2.75-.46,6.33,6.33,0,0,0,2.18-1.3l1.66,2.79a8.38,8.38,0,0,1-3.15,1.77,12.37,12.37,0,0,1-3.86.6,10.07,10.07,0,0,1-4.46-.93,6.78,6.78,0,0,1-2.93-2.64,7.57,7.57,0,0,1-1-4,10.46,10.46,0,0,1,1.26-5.14,9,9,0,0,1,3.52-3.57,10.13,10.13,0,0,1,5.07-1.28,8.08,8.08,0,0,1,5.73,2A7.13,7.13,0,0,1,197.64-108.28Zm-25,4.06a7.22,7.22,0,0,0-.06.74q0,1.92,2,1.92a3.86,3.86,0,0,0,2.24-.67l.71,2.94a7.69,7.69,0,0,1-4.13,1,5.08,5.08,0,0,1-3.55-1.22,4.29,4.29,0,0,1-1.35-3.36,7.17,7.17,0,0,1,.13-1.34l1.63-8.07h-2.78l.64-3.2h2.78l.77-3.9h4l-.8,3.9h4.61l-.64,3.2h-4.61ZM154-101.69a5.66,5.66,0,0,0,3-.81,5.78,5.78,0,0,0,2.1-2.28,7,7,0,0,0,.77-3.31,4.17,4.17,0,0,0-1.19-3.15,4.6,4.6,0,0,0-3.32-1.14,5.71,5.71,0,0,0-3,.82,5.74,5.74,0,0,0-2.09,2.27,6.91,6.91,0,0,0-.77,3.31,4.17,4.17,0,0,0,1.18,3.16A4.65,4.65,0,0,0,154-101.69Zm11.39-13.89L162-98.49H158.2l.35-1.76a8.1,8.1,0,0,1-5.56,2,8.11,8.11,0,0,1-3.83-.9,6.65,6.65,0,0,1-2.7-2.61,7.87,7.87,0,0,1-1-4,10.46,10.46,0,0,1,1.26-5.14,9.07,9.07,0,0,1,3.46-3.57,9.56,9.56,0,0,1,4.91-1.28q4.1,0,5.82,2.72l.48-2.53Zm-18.44,0L136.24-98.49h-4.13l-3.93-17.09h3.93L135-102.87l8-12.71Zm-22.12-2.81a2.36,2.36,0,0,1-1.73-.66,2.12,2.12,0,0,1-.67-1.58,2.46,2.46,0,0,1,.75-1.83,2.7,2.7,0,0,1,2-.73,2.48,2.48,0,0,1,1.73.62,2,2,0,0,1,.67,1.52,2.57,2.57,0,0,1-.75,1.92A2.72,2.72,0,0,1,124.84-118.39Zm-2.91,2.81h4l-3.4,17.09h-4Zm-9.68,2.21a6.11,6.11,0,0,1,2.74-1.85,11.91,11.91,0,0,1,3.85-.55l-.73,3.81a6.14,6.14,0,0,0-1-.1q-4.91,0-5.92,5.16l-1.7,8.41h-4l3.39-17.09h3.81Zm-17.77,4.9a7.22,7.22,0,0,0,4.69-1.36,4.8,4.8,0,0,0,1.65-3.92,3.16,3.16,0,0,0-1.23-2.71,5.93,5.93,0,0,0-3.54-.91H91.31l-1.76,8.9Zm2-12.42a9.83,9.83,0,0,1,6.29,1.78,6,6,0,0,1,2.22,5,9,9,0,0,1-1.3,4.92,8.31,8.31,0,0,1-3.71,3.16,13.48,13.48,0,0,1-5.68,1.11H88.85l-1.31,6.46H83.38l4.48-22.4Z"/></clipPath><clipPath id="clip-path-10"><path class="cls-2" d="M271.74-431.59a7.29,7.29,0,0,0-.06.73q0,1.92,2,1.92a3.86,3.86,0,0,0,2.24-.67l.71,2.95a7.69,7.69,0,0,1-4.13,1,5,5,0,0,1-3.55-1.22,4.29,4.29,0,0,1-1.35-3.36,7.34,7.34,0,0,1,.13-1.34l1.63-8.06h-2.78l.64-3.2H270l.77-3.91h4l-.8,3.91h4.61l-.64,3.2h-4.61Zm-15.37-8.35a5.54,5.54,0,0,0-3.44,1.08,5.62,5.62,0,0,0-2,3h9.8a3.71,3.71,0,0,0-1.17-3A4.62,4.62,0,0,0,256.37-439.94Zm8.07,4.28a11.54,11.54,0,0,1-.26,2.44H250.61q.1,4.19,4.93,4.19a8,8,0,0,0,2.75-.47,6.21,6.21,0,0,0,2.18-1.29l1.66,2.78a8.54,8.54,0,0,1-3.15,1.78,12.67,12.67,0,0,1-3.86.59,10.07,10.07,0,0,1-4.46-.93,6.78,6.78,0,0,1-2.93-2.64,7.57,7.57,0,0,1-1-4A10.49,10.49,0,0,1,248-438.3a9.06,9.06,0,0,1,3.52-3.56,10.06,10.06,0,0,1,5.07-1.28,8,8,0,0,1,5.73,2A7.12,7.12,0,0,1,264.44-435.66Zm-22.16-13.95h4l-4.73,23.75h-4Zm-9,0h4l-4.73,23.75h-4Zm-17.74,20.55a5.73,5.73,0,0,0,3-.82,5.74,5.74,0,0,0,2.09-2.27,6.91,6.91,0,0,0,.77-3.31,4.17,4.17,0,0,0-1.18-3.16,4.65,4.65,0,0,0-3.33-1.13,5.66,5.66,0,0,0-3,.81,5.78,5.78,0,0,0-2.1,2.28,7,7,0,0,0-.77,3.31,4.17,4.17,0,0,0,1.19,3.15A4.57,4.57,0,0,0,215.54-429.06Zm11.4-13.89-3.4,17.09h-3.8l.35-1.76a8.12,8.12,0,0,1-5.57,2,8.07,8.07,0,0,1-3.82-.9,6.52,6.52,0,0,1-2.71-2.6,7.88,7.88,0,0,1-1-4,10.49,10.49,0,0,1,1.26-5.14,9.25,9.25,0,0,1,3.46-3.56,9.49,9.49,0,0,1,4.91-1.28c2.73,0,4.67.9,5.83,2.72l.48-2.53Zm-17.1-5.31L198-425.86h-4.45l-2.24-16.42-9,16.42h-4.45l-2.94-22.4h4.12l2.21,17,9.19-17h3.87l2.21,17.18,9.18-17.18Zm-46.57,5.12a6.6,6.6,0,0,1,4.56,1.5,5.45,5.45,0,0,1,1.68,4.29,12,12,0,0,1-.23,2l-1.88,9.48h-4l1.85-9.38a6.33,6.33,0,0,0,.13-1.31q0-3.1-3.42-3.11a5.42,5.42,0,0,0-3.65,1.24,6.37,6.37,0,0,0-1.95,3.69l-1.8,8.87h-4l4.74-23.75h4l-1.66,8.35A8.4,8.4,0,0,1,163.27-443.14Zm-23.12,17.5a16,16,0,0,1-4.14-.53A9.13,9.13,0,0,1,133-427.5l1.67-3.07a8.35,8.35,0,0,0,2.65,1.22,12.17,12.17,0,0,0,3.3.45,6.29,6.29,0,0,0,2.9-.53,1.65,1.65,0,0,0,1-1.52,1.17,1.17,0,0,0-.81-1.12,15.41,15.41,0,0,0-2.58-.74,21.52,21.52,0,0,1-3-.75,4.91,4.91,0,0,1-2-1.31,3.58,3.58,0,0,1-.85-2.51,4.88,4.88,0,0,1,2.23-4.21,10.07,10.07,0,0,1,5.9-1.55,14.44,14.44,0,0,1,3.43.4,8.82,8.82,0,0,1,2.72,1.07L148-438.6a7.57,7.57,0,0,0-2.38-1,11.53,11.53,0,0,0-2.67-.32,5.82,5.82,0,0,0-2.87.57,1.72,1.72,0,0,0-1,1.51,1.25,1.25,0,0,0,.85,1.2,15.7,15.7,0,0,0,2.64.75,24.69,24.69,0,0,1,2.94.75,4.79,4.79,0,0,1,2,1.3,3.42,3.42,0,0,1,.84,2.43,4.85,4.85,0,0,1-2.24,4.26A10.57,10.57,0,0,1,140.15-425.64Zm-18.82-3.42a5.67,5.67,0,0,0,3-.82,5.69,5.69,0,0,0,2.1-2.27,7,7,0,0,0,.77-3.31,4.18,4.18,0,0,0-1.19-3.16,4.64,4.64,0,0,0-3.32-1.13,5.7,5.7,0,0,0-3,.81,5.83,5.83,0,0,0-2.09,2.28,6.88,6.88,0,0,0-.77,3.31A4.16,4.16,0,0,0,118-430.2,4.61,4.61,0,0,0,121.33-429.06Zm11.39-13.89-3.39,17.09h-3.81l.35-1.76a8.09,8.09,0,0,1-5.56,2,8.11,8.11,0,0,1-3.83-.9,6.56,6.56,0,0,1-2.7-2.6,7.88,7.88,0,0,1-1-4,10.49,10.49,0,0,1,1.26-5.14,9.11,9.11,0,0,1,3.46-3.56,9.47,9.47,0,0,1,4.91-1.28c2.73,0,4.67.9,5.82,2.72l.48-2.53Zm-35.3,13.57a10.37,10.37,0,0,0,5.12-1.22,8.39,8.39,0,0,0,3.34-3.34,9.85,9.85,0,0,0,1.17-4.82,5.51,5.51,0,0,0-1.83-4.4,7.83,7.83,0,0,0-5.31-1.58H94.76l-3.07,15.36ZM91.3-448.26h9.06a13.89,13.89,0,0,1,5.82,1.13,8.41,8.41,0,0,1,3.76,3.22,9,9,0,0,1,1.3,4.89,13.47,13.47,0,0,1-1.74,6.92,11.82,11.82,0,0,1-4.92,4.6,15.66,15.66,0,0,1-7.29,1.64H86.82Z"/></clipPath><clipPath id="clip-path-11"><path class="cls-2" d="M267.73,57.87a5.67,5.67,0,0,0,3-.81,5.58,5.58,0,0,0,2.1-2.28,7.11,7.11,0,0,0,.75-3.31,4.16,4.16,0,0,0-1.18-3.15,4.61,4.61,0,0,0-3.33-1.14,5.74,5.74,0,0,0-3,.82A5.6,5.6,0,0,0,264,50.27a7.14,7.14,0,0,0-.76,3.31,4.18,4.18,0,0,0,1.19,3.16A4.65,4.65,0,0,0,267.73,57.87Zm12.7-20.54-4.74,23.74h-3.8l.35-1.76a8.18,8.18,0,0,1-5.54,2,8.07,8.07,0,0,1-3.82-.9,6.73,6.73,0,0,1-2.71-2.61,7.87,7.87,0,0,1-1-4,10.59,10.59,0,0,1,1.25-5.16,9.17,9.17,0,0,1,3.44-3.55,9.59,9.59,0,0,1,4.91-1.28,8.62,8.62,0,0,1,3.51.67,5.25,5.25,0,0,1,2.32,2l1.82-9.12Zm-30.57,6.46a6.55,6.55,0,0,1,4.56,1.51,5.41,5.41,0,0,1,1.68,4.25,12.37,12.37,0,0,1-.22,2.05L254,61.07h-4l1.85-9.37a6.42,6.42,0,0,0,.13-1.32c0-2.06-1.14-3.1-3.42-3.1a5.43,5.43,0,0,0-3.65,1.23,6.4,6.4,0,0,0-2,3.7l-1.79,8.86h-4L240.55,44h3.81L244,45.87A8.49,8.49,0,0,1,249.86,43.79ZM227.42,47A5.38,5.38,0,0,0,222,51.06h9.79a3.74,3.74,0,0,0-1.16-3A4.69,4.69,0,0,0,227.42,47Zm8.06,4.29a11.52,11.52,0,0,1-.25,2.43H221.66c.06,2.8,1.71,4.19,4.93,4.19a8,8,0,0,0,2.75-.46,6.33,6.33,0,0,0,2.18-1.3l1.66,2.79A8.54,8.54,0,0,1,230,60.7a12.37,12.37,0,0,1-3.86.6,10,10,0,0,1-4.46-.93,6.78,6.78,0,0,1-2.93-2.64,7.57,7.57,0,0,1-1-3.95A10.49,10.49,0,0,1,219,48.64a9.15,9.15,0,0,1,3.52-3.57,10.1,10.1,0,0,1,5.07-1.28,8.08,8.08,0,0,1,5.73,2A7.16,7.16,0,0,1,235.48,51.28Zm-30,10.11a16.58,16.58,0,0,1-5-.73,10.44,10.44,0,0,1-3.72-1.89l1.76-3.27a11,11,0,0,0,3.35,1.78,12.17,12.17,0,0,0,3.95.66,7.83,7.83,0,0,0,3.92-.85,2.6,2.6,0,0,0,1.46-2.32,1.81,1.81,0,0,0-.6-1.39,4.49,4.49,0,0,0-1.47-.92c-.59-.23-1.4-.5-2.45-.8a28.22,28.22,0,0,1-3.52-1.23,6.07,6.07,0,0,1-2.3-1.77,4.75,4.75,0,0,1-1-3.08,6.11,6.11,0,0,1,1.23-3.8,7.93,7.93,0,0,1,3.44-2.53,13.4,13.4,0,0,1,5.09-.9,16.75,16.75,0,0,1,4.13.5,11.43,11.43,0,0,1,3.36,1.39l-1.63,3.3a10.07,10.07,0,0,0-2.82-1.28,11.77,11.77,0,0,0-3.26-.45,7.39,7.39,0,0,0-4,.91A2.75,2.75,0,0,0,204,45.14a1.9,1.9,0,0,0,.61,1.44,4.52,4.52,0,0,0,1.47.91c.57.22,1.42.51,2.53.85a30,30,0,0,1,3.45,1.18,6,6,0,0,1,2.29,1.7,4.33,4.33,0,0,1,.94,2.91A6.21,6.21,0,0,1,214.08,58a7.86,7.86,0,0,1-3.49,2.53A14,14,0,0,1,205.43,61.39ZM188,47a5.38,5.38,0,0,0-5.41,4.07h9.79a3.75,3.75,0,0,0-1.17-3A4.66,4.66,0,0,0,188,47ZM196,51.28a11.52,11.52,0,0,1-.26,2.43H182.22c.06,2.8,1.7,4.19,4.92,4.19a8,8,0,0,0,2.76-.46,6.28,6.28,0,0,0,2.17-1.3l1.67,2.79a8.5,8.5,0,0,1-3.16,1.77,12.31,12.31,0,0,1-3.85.6,10.08,10.08,0,0,1-4.47-.93,6.76,6.76,0,0,1-2.92-2.64,7.48,7.48,0,0,1-1-3.95,10.39,10.39,0,0,1,1.27-5.14,9.09,9.09,0,0,1,3.52-3.57,10.1,10.1,0,0,1,5.07-1.28,8.08,8.08,0,0,1,5.73,2A7.16,7.16,0,0,1,196,51.28Zm-24-5.09a6.11,6.11,0,0,1,2.74-1.85,11.87,11.87,0,0,1,3.85-.55l-.73,3.81a6.37,6.37,0,0,0-1-.1q-4.89,0-5.92,5.16l-1.69,8.41h-4L168.67,44h3.81ZM163.7,44l-3.42,17.09h-3.81l.38-1.89a8.22,8.22,0,0,1-5.79,2.12,6.47,6.47,0,0,1-4.5-1.52,5.49,5.49,0,0,1-1.68-4.28,9.45,9.45,0,0,1,.23-2L147,44h4l-1.89,9.38a6.33,6.33,0,0,0-.13,1.31,3,3,0,0,0,.85,2.31,3.58,3.58,0,0,0,2.54.8A5.34,5.34,0,0,0,156,56.54a6.24,6.24,0,0,0,1.92-3.69L159.7,44ZM133.93,61.3a9.86,9.86,0,0,1-4.43-.95,6.91,6.91,0,0,1-2.93-2.64,7.47,7.47,0,0,1-1-3.93,10,10,0,0,1,1.31-5.12,9.3,9.3,0,0,1,3.63-3.57,10.62,10.62,0,0,1,5.3-1.3,9.3,9.3,0,0,1,4.46,1,6.93,6.93,0,0,1,2.9,3l-3.43,1.76a4.32,4.32,0,0,0-4.25-2.37,5.61,5.61,0,0,0-5.12,3.09,7,7,0,0,0-.77,3.31,4.17,4.17,0,0,0,1.18,3.16,4.69,4.69,0,0,0,3.36,1.13,5.81,5.81,0,0,0,2.66-.59,5.43,5.43,0,0,0,2-1.78l2.94,2a8,8,0,0,1-3.26,2.8A10.35,10.35,0,0,1,133.93,61.3ZM115.65,47a5.38,5.38,0,0,0-5.41,4.07H120a3.74,3.74,0,0,0-1.16-3A4.69,4.69,0,0,0,115.65,47Zm8.06,4.29a11.52,11.52,0,0,1-.25,2.43H109.89c.06,2.8,1.71,4.19,4.93,4.19a8,8,0,0,0,2.75-.46,6.33,6.33,0,0,0,2.18-1.3l1.66,2.79a8.54,8.54,0,0,1-3.15,1.77,12.37,12.37,0,0,1-3.86.6,10,10,0,0,1-4.46-.93A6.78,6.78,0,0,1,107,57.73a7.57,7.57,0,0,1-1-3.95,10.49,10.49,0,0,1,1.26-5.14,9.15,9.15,0,0,1,3.52-3.57,10.1,10.1,0,0,1,5.07-1.28,8.08,8.08,0,0,1,5.73,2A7.16,7.16,0,0,1,123.71,51.28Zm-30,10.11a16.58,16.58,0,0,1-5-.73A10.44,10.44,0,0,1,85,58.77l1.76-3.27a11,11,0,0,0,3.35,1.78,12.17,12.17,0,0,0,4,.66A7.83,7.83,0,0,0,98,57.09a2.6,2.6,0,0,0,1.46-2.32,1.81,1.81,0,0,0-.6-1.39,4.49,4.49,0,0,0-1.47-.92c-.58-.23-1.4-.5-2.45-.8a28.22,28.22,0,0,1-3.52-1.23,6.07,6.07,0,0,1-2.3-1.77,4.75,4.75,0,0,1-1-3.08,6.11,6.11,0,0,1,1.23-3.8,7.93,7.93,0,0,1,3.44-2.53,13.4,13.4,0,0,1,5.09-.9,16.75,16.75,0,0,1,4.13.5,11.43,11.43,0,0,1,3.36,1.39l-1.63,3.3a9.94,9.94,0,0,0-2.82-1.28,11.77,11.77,0,0,0-3.26-.45,7.39,7.39,0,0,0-4,.91,2.75,2.75,0,0,0-1.45,2.42,1.9,1.9,0,0,0,.61,1.44,4.52,4.52,0,0,0,1.47.91c.57.22,1.42.51,2.53.85a30,30,0,0,1,3.45,1.18,6,6,0,0,1,2.29,1.7,4.33,4.33,0,0,1,.94,2.91A6.21,6.21,0,0,1,102.31,58a7.86,7.86,0,0,1-3.49,2.53A14,14,0,0,1,93.66,61.39Z"/></clipPath><clipPath id="clip-path-12"><rect class="cls-1" x="-2207.23" y="-2218.93" width="2742" height="8582"/></clipPath></defs><title>dash_secureSend_icon_enclosed</title><g class="cls-9"><g class="cls-10"><rect class="cls-11" x="26.38" y="2.58" width="312.65" height="93.57"/></g></g><g class="cls-14"><g class="cls-15"><rect class="cls-11" x="74.98" y="27.33" width="215.45" height="44.06"/></g></g></svg>